<?xml version="1.0"?><svg xmlns="http://www.w3.org/2000/svg" xmlns:xlink="http://www.w3.org/1999/xlink" width="210mm" height="297mm" viewBox="0 0 794 1123" fill="none" stroke="#2d2d2d" stroke-width="3" stroke-linecap="round" stroke-linejoin="round" font-family="Kalam, cursive" xmlns:c2pa="http://c2pa.org/manifest"><metadata><c2pa:manifest>AAAWgmp1bWIAAAAeanVtZGMycGEAEQAQgAAAqgA4m3EDYzJwYQAAABZcanVtYgAAAEdqdW1kYzJtYQARABCAAACqADibcQN1cm46YzJwYTo3YmFkOGE3NS05ZjVhLTQ2NjktOTdmOS0wZWYzYjYwNTJhMzkAAAADl2p1bWIAAAApanVtZGMyYXMAEQAQgAAAqgA4m3EDYzJwYS5hc3NlcnRpb25zAAAAALxqdW1iAAAARGp1bWRjYm9yABEAEIAAAKoAOJtxE2MycGEuaW5ncmVkaWVudC52MwAAAAAYYzJzaMxwDTzYt6nmcscvY3BXCp8AAABwY2JvcqNpZGM6Zm9ybWF0bWltYWdlL3N2Zyt4bWxqaW5zdGFuY2VJRHgseG1wOmlpZDpkOGZkNmZlNi1jMTUzLTRkYzQtOTE3MS00ZDY2NjkyNjMwYzBscmVsYXRpb25zaGlwaHBhcmVudE9mAAAB4mp1bWIAAABBanVtZGNib3IAEQAQgAAAqgA4m3ETYzJwYS5hY3Rpb25zLnYyAAAAABhjMnNo4p7oiNdawUrFEgdJhCQeGQAAAZljYm9yomdhY3Rpb25zgqJmYWN0aW9ua2MycGEub3BlbmVkanBhcmFtZXRlcnOha2luZ3JlZGllbnRzgaJjdXJseC1zZWxmI2p1bWJmPWMycGEuYXNzZXJ0aW9ucy9jMnBhLmluZ3JlZGllbnQudjNkaGFzaFggWB1SKzpGt91KXjAblI6IKOyvoUTWogYYu+dkXl/opzWkZmFjdGlvbngdY29tLmFudGhyb3BpYy5jbGF1ZGUucHJvdmlkZWRqcGFyYW1ldGVyc6F4H2NvbS5hbnRocm9waWMub3JpZ2luLWNvbmZpZGVuY2VndW5rbm93bmtkZXNjcmlwdGlvbnhmQ2xhdWRlIHByb3ZpZGVkIHRoaXMgZmlsZSBhdCB0aGUgcmVxdWVzdCBvZiBhIHVzZXIgYW5kIG1heSBoYXZlIGNyZWF0ZWQgb3IgbW9kaWZpZWQgdGhlIGZpbGUgY29udGVudHMubXNvZnR3YXJlQWdlbnShZG5hbWVmQ2xhdWRlcmFsbEFjdGlvbnNJbmNsdWRlZPUAAADIanVtYgAAAEBqdW1kY2JvcgARABCAAACqADibcRNjMnBhLmhhc2guZGF0YQAAAAAYYzJzaHvTOMAYzEe0MjOR9w1Tql0AAACAY2JvcqVjYWxnZnNoYTI1NmNwYWRMAAAAAAAAAAAAAAAAZGhhc2hYIP093PDg88AHVKbM/f4CRlQjDUVpOznIUqB7xgwu2LLZZG5hbWVuanVtYmYgbWFuaWZlc3RqZXhjbHVzaW9uc4GiZXN0YXJ0GQFVZmxlbmd0aBkeBAAAAj5qdW1iAAAAJ2p1bWRjMmNsABEAEIAAAKoAOJtxA2MycGEuY2xhaW0udjIAAAACD2Nib3KlY2FsZ2ZzaGEyNTZpc2lnbmF0dXJleE1zZWxmI2p1bWJmPS9jMnBhL3VybjpjMnBhOjdiYWQ4YTc1LTlmNWEtNDY2OS05N2Y5LTBlZjNiNjA1MmEzOS9jMnBhLnNpZ25hdHVyZWppbnN0YW5jZUlEeCx4bXA6aWlkOjg4NDQ4ZGY5LTM4YjktNDZlYi04ZmE4LWU5YjdhODhkNTBlYnJjcmVhdGVkX2Fzc2VydGlvbnODomN1cmx4LXNlbGYjanVtYmY9YzJwYS5hc3NlcnRpb25zL2MycGEuaW5ncmVkaWVudC52M2RoYXNoWCBYHVIrOka33UpeMBuUjogo7K+hRNaiBhi752ReX+inNaJjdXJseCpzZWxmI2p1bWJmPWMycGEuYXNzZXJ0aW9ucy9jMnBhLmFjdGlvbnMudjJkaGFzaFggSa5eFrp+QaD9d1Fdf9xAV72RU2h0IrbsK8trRB2aeuiiY3VybHgpc2VsZiNqdW1iZj1jMnBhLmFzc2VydGlvbnMvYzJwYS5oYXNoLmRhdGFkaGFzaFgggrOS2oKNt/DO0a1IOAb6edVHiWX9+KzLy6tus6YygqJ0Y2xhaW1fZ2VuZXJhdG9yX2luZm+jZG5hbWVvQW50aHJvcGljIEZpbGVzZ3ZlcnNpb25lMS4wLjBrc3BlY1ZlcnNpb25lMi40LjAAABA4anVtYgAAAChqdW1kYzJjcwARABCAAACqADibcQNjMnBhLnNpZ25hdHVyZQAAABAIY2JvctKEWQISogEmGCFZAgowggIGMIIBjaADAgECAhRA5aAK7sI50L64g/oGQgU9Z1UTADAKBggqhkjOPQQDAzBJMRcwFQYDVQQKEw5BbnRocm9waWMsIFBCQzEuMCwGA1UEAxMlQW50aHJvcGljIENvbnRlbnQgQ3JlZGVudGlhbHMgUm9vdCBDQTAeFw0yNjA4MDcxODQzNTZaFw0yODA4MDYxOTQzNTZaMEQxFzAVBgNVBAoTDkFudGhyb3BpYywgUEJDMSkwJwYDVQQDEyBBbnRocm9waWMgQ2xhdWRlIENvbnRlbnQgU2lnbmluZzBZMBMGByqGSM49AgEGCCqGSM49AwEHA0IABJh6CmvLUBgFFNU0vUKlOVtE6djd17L5SuwX0LemFisBM3dkd/3cyjxFA3Qo5S46fX0/ihY0VZ7mfb9KF703t5OjWDBWMA4GA1UdDwEB/wQEAwIHgDAVBgNVHSUEDjAMBgorBgEEAYPoXgIBMAwGA1UdEwEB/wQCMAAwHwYDVR0jBBgwFoAUzlHiBIFOZFsj+OPEz5o+nMHXXMIwCgYIKoZIzj0EAwMDZwAwZAIwMXMdFJ4BetLLVY7ORuE9noqbbAZOZn/aArXyTwFAZfKrPzxF2vPoJNf1+UCdg1XGAjBwX1zd9WGqYkqmL5SFqw1QySjr1zJfpJM9+1rdDwSPLMOPOjKuiXjoU/pUUeG9RwmhY3BhZFkNngAAAAAAAAAAAAAAAAAAAAAAAAAAAAAAAAAAAAAAAAAAAAAAAAAAAAAAAAAAAAAAAAAAAAAAAAAAAAAAAAAAAAAAAAAAAAAAAAAAAAAAAAAAAAAAAAAAAAAAAAAAAAAAAAAAAAAAAAAAAAAAAAAAAAAAAAAAAAAAAAAAAAAAAAAAAAAAAAAAAAAAAAAAAAAAAAAAAAAAAAAAAAAAAAAAAAAAAAAAAAAAAAAAAAAAAAAAAAAAAAAAAAAAAAAAAAAAAAAAAAAAAAAAAAAAAAAAAAAAAAAAAAAAAAAAAAAAAAAAAAAAAAAAAAAAAAAAAAAAAAAAAAAAAAAAAAAAAAAAAAAAAAAAAAAAAAAAAAAAAAAAAAAAAAAAAAAAAAAAAAAAAAAAAAAAAAAAAAAAAAAAAAAAAAAAAAAAAAAAAAAAAAAAAAAAAAAAAAAAAAAAAAAAAAAAAAAAAAAAAAAAAAAAAAAAAAAAAAAAAAAAAAAAAAAAAAAAAAAAAAAAAAAAAAAAAAAAAAAAAAAAAAAAAAAAAAAAAAAAAAAAAAAAAAAAAAAAAAAAAAAAAAAAAAAAAAAAAAAAAAAAAAAAAAAAAAAAAAAAAAAAAAAAAAAAAAAAAAAAAAAAAAAAAAAAAAAAAAAAAAAAAAAAAAAAAAAAAAAAAAAAAAAAAAAAAAAAAAAAAAAAAAAAAAAAAAAAAAAAAAAAAAAAAAAAAAAAAAAAAAAAAAAAAAAAAAAAAAAAAAAAAAAAAAAAAAAAAAAAAAAAAAAAAAAAAAAAAAAAAAAAAAAAAAAAAAAAAAAAAAAAAAAAAAAAAAAAAAAAAAAAAAAAAAAAAAAAAAAAAAAAAAAAAAAAAAAAAAAAAAAAAAAAAAAAAAAAAAAAAAAAAAAAAAAAAAAAAAAAAAAAAAAAAAAAAAAAAAAAAAAAAAAAAAAAAAAAAAAAAAAAAAAAAAAAAAAAAAAAAAAAAAAAAAAAAAAAAAAAAAAAAAAAAAAAAAAAAAAAAAAAAAAAAAAAAAAAAAAAAAAAAAAAAAAAAAAAAAAAAAAAAAAAAAAAAAAAAAAAAAAAAAAAAAAAAAAAAAAAAAAAAAAAAAAAAAAAAAAAAAAAAAAAAAAAAAAAAAAAAAAAAAAAAAAAAAAAAAAAAAAAAAAAAAAAAAAAAAAAAAAAAAAAAAAAAAAAAAAAAAAAAAAAAAAAAAAAAAAAAAAAAAAAAAAAAAAAAAAAAAAAAAAAAAAAAAAAAAAAAAAAAAAAAAAAAAAAAAAAAAAAAAAAAAAAAAAAAAAAAAAAAAAAAAAAAAAAAAAAAAAAAAAAAAAAAAAAAAAAAAAAAAAAAAAAAAAAAAAAAAAAAAAAAAAAAAAAAAAAAAAAAAAAAAAAAAAAAAAAAAAAAAAAAAAAAAAAAAAAAAAAAAAAAAAAAAAAAAAAAAAAAAAAAAAAAAAAAAAAAAAAAAAAAAAAAAAAAAAAAAAAAAAAAAAAAAAAAAAAAAAAAAAAAAAAAAAAAAAAAAAAAAAAAAAAAAAAAAAAAAAAAAAAAAAAAAAAAAAAAAAAAAAAAAAAAAAAAAAAAAAAAAAAAAAAAAAAAAAAAAAAAAAAAAAAAAAAAAAAAAAAAAAAAAAAAAAAAAAAAAAAAAAAAAAAAAAAAAAAAAAAAAAAAAAAAAAAAAAAAAAAAAAAAAAAAAAAAAAAAAAAAAAAAAAAAAAAAAAAAAAAAAAAAAAAAAAAAAAAAAAAAAAAAAAAAAAAAAAAAAAAAAAAAAAAAAAAAAAAAAAAAAAAAAAAAAAAAAAAAAAAAAAAAAAAAAAAAAAAAAAAAAAAAAAAAAAAAAAAAAAAAAAAAAAAAAAAAAAAAAAAAAAAAAAAAAAAAAAAAAAAAAAAAAAAAAAAAAAAAAAAAAAAAAAAAAAAAAAAAAAAAAAAAAAAAAAAAAAAAAAAAAAAAAAAAAAAAAAAAAAAAAAAAAAAAAAAAAAAAAAAAAAAAAAAAAAAAAAAAAAAAAAAAAAAAAAAAAAAAAAAAAAAAAAAAAAAAAAAAAAAAAAAAAAAAAAAAAAAAAAAAAAAAAAAAAAAAAAAAAAAAAAAAAAAAAAAAAAAAAAAAAAAAAAAAAAAAAAAAAAAAAAAAAAAAAAAAAAAAAAAAAAAAAAAAAAAAAAAAAAAAAAAAAAAAAAAAAAAAAAAAAAAAAAAAAAAAAAAAAAAAAAAAAAAAAAAAAAAAAAAAAAAAAAAAAAAAAAAAAAAAAAAAAAAAAAAAAAAAAAAAAAAAAAAAAAAAAAAAAAAAAAAAAAAAAAAAAAAAAAAAAAAAAAAAAAAAAAAAAAAAAAAAAAAAAAAAAAAAAAAAAAAAAAAAAAAAAAAAAAAAAAAAAAAAAAAAAAAAAAAAAAAAAAAAAAAAAAAAAAAAAAAAAAAAAAAAAAAAAAAAAAAAAAAAAAAAAAAAAAAAAAAAAAAAAAAAAAAAAAAAAAAAAAAAAAAAAAAAAAAAAAAAAAAAAAAAAAAAAAAAAAAAAAAAAAAAAAAAAAAAAAAAAAAAAAAAAAAAAAAAAAAAAAAAAAAAAAAAAAAAAAAAAAAAAAAAAAAAAAAAAAAAAAAAAAAAAAAAAAAAAAAAAAAAAAAAAAAAAAAAAAAAAAAAAAAAAAAAAAAAAAAAAAAAAAAAAAAAAAAAAAAAAAAAAAAAAAAAAAAAAAAAAAAAAAAAAAAAAAAAAAAAAAAAAAAAAAAAAAAAAAAAAAAAAAAAAAAAAAAAAAAAAAAAAAAAAAAAAAAAAAAAAAAAAAAAAAAAAAAAAAAAAAAAAAAAAAAAAAAAAAAAAAAAAAAAAAAAAAAAAAAAAAAAAAAAAAAAAAAAAAAAAAAAAAAAAAAAAAAAAAAAAAAAAAAAAAAAAAAAAAAAAAAAAAAAAAAAAAAAAAAAAAAAAAAAAAAAAAAAAAAAAAAAAAAAAAAAAAAAAAAAAAAAAAAAAAAAAAAAAAAAAAAAAAAAAAAAAAAAAAAAAAAAAAAAAAAAAAAAAAAAAAAAAAAAAAAAAAAAAAAAAAAAAAAAAAAAAAAAAAAAAAAAAAAAAAAAAAAAAAAAAAAAAAAAAAAAAAAAAAAAAAAAAAAAAAAAAAAAAAAAAAAAAAAAAAAAAAAAAAAAAAAAAAAAAAAAAAAAAAAAAAAAAAAAAAAAAAAAAAAAAAAAAAAAAAAAAAAAAAAAAAAAAAAAAAAAAAAAAAAAAAAAAAAAAAAAAAAAAAAAAAAAAAAAAAAAAAAAAAAAAAAAAAAAAAAAAAAAAAAAAAAAAAAAAAAAAAAAAAAAAAAAAAAAAAAAAAAAAAAAAAAAAAAAAAAAAAAAAAAAAAAAAAAAAAAAAAAAAAAAAAAAAAAAAAAAAAAAAAAAAAAAAAAAAAAAAAAAAAAAAAAAAAAAAAAAAAAAAAAAAAAAAAAAAAAAAAAAAAAAAAAAAAAAAAAAAAAAAAAAAAAAAAAAAAAAAAAAAAAAAAAAAAAAAAAAAAAAAAAAAAAAAAAAAAAAAAAAAAAAAAAAAAAAAAAAAAAAAAAAAAAAAAAAAAAAAAAAAAAAAAAAAAAAAAAAAAAAAAAAAAAAAAAAAAAAAAAAAAAAAAAAAAAAAAAAAAAAAAAAAAAAAAAAAAAAAAAAAAAAAAAAAAAAAAAAAAAAAAAAAAAAAAAAAAAAAAAAAAAAAAAAAAAAAAAAAAAAAAAAAAAAAAAAAAAAAAAAAAAAAAAAAAAAAAAAAAAAAAAAAAAAAAAAAAAAAAAAAAAAAAAAAAAAAAAAAAAAAAAAAAAAAAAAAAAAAAAAAAAAAAAAAAAAAAAAAAAAAAAAAAAAAAAAAAAAAAAAAAAAAAAAAAAAAAAAAAAAAAAAAAAAAAAAAAAAAAAAAAAAAAAAAAAAAAAAAAAAAAAAAAAAAAAAAAAAAAAAAAAAAAAAAAAAAAAAAAAAAAAAAAAAAAAAAAAAAAAAAAAAAAAAAAAAAAAAAAAAAAAAAAAAAAAAAAAAAAAAAAAAAAAAAAAAAAAAAAAAAAAAAAAAAAAAAAAAAAAAAAAAAAAAAAAAAAAAAAAAAAAAAAAAAAAAAAAAAAAAAAAAAAAAAAAAAAAAAAAAAAAAAAAAAAAAAAAAAAAAAAAAAAAAAAAAAAAAAAAAAAAAAAAAAAAAAAAAAAAAAAAAAAAAAAAAAAAAAAAAAAAAAAAAAAAAAAAAAAAAAAAAAAAAAAAAAAAAAAAAAAAAAAAAAAAAAAAAAAAAAAAAAAAAAAAAAAAAAAAAAAAAAAAAAAAAAAAAAAAAAAAAAAAAAAAAAAAAAAAAAAAAAAAAAAAAAAAAAAAAAAAAAAAAAAAAAAAAAAAAAAAAAAAAAAAAAAAAAAAAAAAAAAAAAAAAAAAAAAAAAAAAAAAAAAAAAAAAAAAAAAAAAAAAAAAAAAAAAAAAAAAAAAAAAAAAAAAAAAAAAAAAAAAAAAAAAAAAAAAAAAAAAAAAAAAAAAAAAAAAAAAAAAAAAAAAAAAAAAAAAAAAAAAAAAAAAAAAAAAAAAAAAAAAAAAAAAAAAAAAAAAAAAAAAAAAAAAAAAAAAAAAAAAAAAAAAAAAAAAAAAAAAAAAAAAAAAAAAAAAAAAAAAAAAAAAAAAAAAAAAAAAAAAAAAAAAAAAAAAAAAAAAAAAAAAAAAAAAAAAAAAAAAAAAAAAAAAAAAAAAAAAPZYQPhhBK6YDxNTXJPIKIIVGFMuoWde/FOCCO/vmR8x60Dpd3KPmcfGwQsD8PDNgT1DwGtEjOlPqiGSRVdzrtIrhE0=</c2pa:manifest></metadata>
<defs></defs>
<rect width="794" height="1123" fill="#ffffff" stroke="none"></rect>
<path d="M58,28 Q86,27.7 105.6,25 Q132.6,32.4 156.9,26.1 Q183.1,31.6 201,27.7 Q222.9,27.5 252.8,25 Q278.4,26.3 298.7,30.6 Q328.9,28.4 346.6,30.7 Q376.4,25.2 396.6,25.5 Q417.5,26.6 446.8,27.6 Q470.6,32 496.2,27.7 Q515.3,29.1 540.6,26.5 Q566.8,25.5 588,25.6 Q614.1,29.3 638.2,30.4 Q667.6,26.7 685.8,26.9 Q708.9,31.2 736,28 Q766,28 766,58 Q765.2,79.2 768,107.8 Q768.5,132 764.1,160.3 Q765,181.4 768.2,209.3 Q767.6,231.1 766.9,261.6 Q763.3,281.3 764,310.8 Q762.3,334.9 768.9,360.4 Q765.7,386.2 767.8,411.4 Q767.7,436.3 768.5,458 Q764.8,481.6 764.4,509 Q767.5,534 765.9,562.5 Q762.2,586.3 765.4,613.9 Q768.9,632.9 768.4,663.9 Q764.3,684.3 767.8,713 Q764.1,736.2 764.5,761.3 Q762.9,790.6 764.6,814.2 Q762.4,836.7 768.1,862.4 Q765.4,893.4 766.3,911 Q767.3,939.6 766.7,963.6 Q762.6,993.3 768,1015.9 Q766.4,1035.7 766,1065 Q766,1095 736,1095 Q707.9,1090.8 686.8,1097.3 Q667.1,1092.6 637.2,1097.2 Q614.2,1098.2 590.3,1097 Q563.5,1092 539.7,1093.6 Q522.5,1094 492.9,1094.2 Q471.9,1095 447.2,1094.8 Q425,1094.3 397.9,1092.7 Q375.6,1094.3 346.7,1092.6 Q324.5,1090.6 300.1,1092.5 Q274.5,1098.7 254.1,1097 Q226.7,1096.9 200.4,1092 Q178.2,1094.7 152.5,1092.5 Q129.8,1097.1 104.3,1097.3 Q78.9,1090.3 58,1095 Q28,1095 28,1065 Q31.1,1042.3 27.1,1014.2 Q28.7,989.1 30,965.2 Q24.5,935.2 29,915.2 Q24.7,892.3 28.2,864 Q24.6,838.3 30.1,811.8 Q28.5,785.7 29.3,760.7 Q32.1,737.4 28.2,711.6 Q25.3,687.4 28.8,664.1 Q32.4,638.9 29.1,609.8 Q29.8,582.1 27.7,561.3 Q31.3,531.8 26.6,512.2 Q24.9,487 26.4,459.3 Q25.4,436.8 25.2,408.1 Q28,383.6 30.1,358.1 Q25.6,331.7 30.4,312.5 Q26.1,284.4 27.9,256.8 Q23.8,230.1 26.9,209.4 Q29.1,185.6 25.6,157.4 Q31.3,137.1 26.2,106.7 Q29.7,87.2 28,58 Q28,28 58,28 Z" stroke-width="4"></path><text x="397" y="240" font-family="Heebo, sans-serif" font-size="220" font-weight="700" text-anchor="middle" direction="rtl" fill="none" stroke="#9a9a9a" stroke-width="4" stroke-dasharray="0 10" stroke-linecap="round">ק</text><text x="397" y="320" font-family="Heebo, sans-serif" font-size="26" font-weight="700" text-anchor="middle" direction="rtl" fill="#2d2d2d" stroke="none">קוֹף</text><path d="M140,524 A110,110 0 0 1 360,524" stroke-width="2"></path><path d="M153.2,524 A96.8,96.8 0 0 1 346.8,524" stroke-width="2"></path><path d="M166.4,524 A83.6,83.6 0 0 1 333.6,524" stroke-width="2"></path><path d="M179.6,524 A70.4,70.4 0 0 1 320.4,524" stroke-width="2"></path><path d="M192.8,524 A57.2,57.2 0 0 1 307.2,524" stroke-width="2"></path><path d="M206,524 A44,44 0 0 1 294,524" stroke-width="2"></path><path d="M219.2,524 A30.8,30.8 0 0 1 280.8,524"></path><path d="M122.4,533.9 Q112.5,520.7 125.7,516.1 Q129,498.9 143.5,506.8 Q154.1,492.3 165.3,509.5 Q185.1,509.5 178.5,527.3 Q185.1,537.2 171.9,537.2 Q148.8,541.2 122.4,533.9 Z" fill="#ffffff"></path><path d="M324.8,533.9 Q314.9,520.7 328.1,516.1 Q331.4,498.9 345.9,506.8 Q356.5,492.3 367.7,509.5 Q387.5,509.5 380.9,527.3 Q387.5,537.2 374.3,537.2 Q351.2,541.2 324.8,533.9 Z" fill="#ffffff"></path><text x="480" y="490" font-family="Kalam, cursive" font-size="30" font-weight="700" text-anchor="start" direction="rtl" fill="#2d2d2d" stroke="none">ק = קֶשֶׁת</text><path d="M70,708 Q95.8,708.8 119.6,708 Q146.7,706.7 170,708.3 Q195.7,709.2 221.6,708.6 Q245.5,709 271.1,707.7 Q296.2,708.8 321.6,707.5 Q346.4,708.4 372.3,707.3 Q396.3,709.2 422.6,708.2 Q447.5,707.4 471.8,708.3 Q498.3,709.2 522,707.2 Q547.8,708.8 573.1,708.2 Q597.7,707.6 624,707.8 Q648.9,707 674.4,708.4 Q699.2,706.8 724,708" stroke-width="1.2" stroke-dasharray="2 5"></path><text x="120" y="700" font-family="Heebo, sans-serif" font-size="64" font-weight="700" text-anchor="middle" direction="rtl" fill="none" stroke="#9a9a9a" stroke-width="2" stroke-dasharray="0 6" stroke-linecap="round">ק</text><text x="250" y="700" font-family="Heebo, sans-serif" font-size="64" font-weight="700" text-anchor="middle" direction="rtl" fill="none" stroke="#9a9a9a" stroke-width="2" stroke-dasharray="0 6" stroke-linecap="round">ק</text><text x="380" y="700" font-family="Heebo, sans-serif" font-size="64" font-weight="700" text-anchor="middle" direction="rtl" fill="none" stroke="#9a9a9a" stroke-width="2" stroke-dasharray="0 6" stroke-linecap="round">ק</text><text x="510" y="700" font-family="Heebo, sans-serif" font-size="64" font-weight="700" text-anchor="middle" direction="rtl" fill="none" stroke="#9a9a9a" stroke-width="2" stroke-dasharray="0 6" stroke-linecap="round">ק</text><text x="640" y="700" font-family="Heebo, sans-serif" font-size="64" font-weight="700" text-anchor="middle" direction="rtl" fill="none" stroke="#9a9a9a" stroke-width="2" stroke-dasharray="0 6" stroke-linecap="round">ק</text><path d="M70,782 Q94.8,782.9 120.6,782.2 Q145.4,782.2 170.1,782.4 Q195.3,781.5 221.3,781.7 Q245.5,780.8 271.1,781.9 Q295.5,781.8 322.1,782.1 Q346.9,781.3 372.3,781.9 Q395.8,781.9 421.5,781.6 Q447.6,782.9 472.9,782.1 Q496.6,781.8 523.2,782.6 Q548.6,781.6 572.7,781.6 Q597.6,783.1 623,782.1 Q648,781.9 673.6,782.2 Q697.9,782.2 724,782" stroke-width="1.2" stroke-dasharray="2 5"></path><text x="120" y="774" font-family="Heebo, sans-serif" font-size="48" font-weight="700" text-anchor="middle" direction="rtl" fill="none" stroke="#9a9a9a" stroke-width="2" stroke-dasharray="0 6" stroke-linecap="round">ק</text><text x="250" y="774" font-family="Heebo, sans-serif" font-size="48" font-weight="700" text-anchor="middle" direction="rtl" fill="none" stroke="#9a9a9a" stroke-width="2" stroke-dasharray="0 6" stroke-linecap="round">ק</text><text x="380" y="774" font-family="Heebo, sans-serif" font-size="48" font-weight="700" text-anchor="middle" direction="rtl" fill="none" stroke="#9a9a9a" stroke-width="2" stroke-dasharray="0 6" stroke-linecap="round">ק</text><text x="510" y="774" font-family="Heebo, sans-serif" font-size="48" font-weight="700" text-anchor="middle" direction="rtl" fill="none" stroke="#9a9a9a" stroke-width="2" stroke-dasharray="0 6" stroke-linecap="round">ק</text><text x="640" y="774" font-family="Heebo, sans-serif" font-size="48" font-weight="700" text-anchor="middle" direction="rtl" fill="none" stroke="#9a9a9a" stroke-width="2" stroke-dasharray="0 6" stroke-linecap="round">ק</text><path d="M70,856 Q94.7,855.8 119.8,855.5 Q145.8,856.8 170.7,856.6 Q194.7,856.2 220.8,856.7 Q247.3,854.9 271.9,856.3 Q297.5,857 321.7,855.8 Q347.5,856.1 371.7,856.1 Q397.6,857 422.2,856.1 Q448.1,855 471.8,856.5 Q498.1,856.4 523.2,855.4 Q547.3,855.9 573.1,855.9 Q597.3,857.2 623.7,856.1 Q649.2,855.4 673.8,855.4 Q697.6,855.2 724,856" stroke-width="1.2" stroke-dasharray="2 5"></path><text x="120" y="848" font-family="Heebo, sans-serif" font-size="34" font-weight="700" text-anchor="middle" direction="rtl" fill="none" stroke="#9a9a9a" stroke-width="2" stroke-dasharray="0 6" stroke-linecap="round">ק</text><text x="250" y="848" font-family="Heebo, sans-serif" font-size="34" font-weight="700" text-anchor="middle" direction="rtl" fill="none" stroke="#9a9a9a" stroke-width="2" stroke-dasharray="0 6" stroke-linecap="round">ק</text><text x="380" y="848" font-family="Heebo, sans-serif" font-size="34" font-weight="700" text-anchor="middle" direction="rtl" fill="none" stroke="#9a9a9a" stroke-width="2" stroke-dasharray="0 6" stroke-linecap="round">ק</text><text x="510" y="848" font-family="Heebo, sans-serif" font-size="34" font-weight="700" text-anchor="middle" direction="rtl" fill="none" stroke="#9a9a9a" stroke-width="2" stroke-dasharray="0 6" stroke-linecap="round">ק</text><text x="640" y="848" font-family="Heebo, sans-serif" font-size="34" font-weight="700" text-anchor="middle" direction="rtl" fill="none" stroke="#9a9a9a" stroke-width="2" stroke-dasharray="0 6" stroke-linecap="round">ק</text><text x="397" y="1096" font-family="Heebo, sans-serif" font-size="14" font-weight="700" text-anchor="middle" direction="rtl" fill="#2d2d2d" stroke="none">UGABUGA</text>
</svg>