<?xml version="1.0"?><svg xmlns="http://www.w3.org/2000/svg" xmlns:xlink="http://www.w3.org/1999/xlink" width="210mm" height="297mm" viewBox="0 0 794 1123" fill="none" stroke="#2d2d2d" stroke-width="3" stroke-linecap="round" stroke-linejoin="round" font-family="Kalam, cursive" xmlns:c2pa="http://c2pa.org/manifest"><metadata><c2pa:manifest>AAAWgmp1bWIAAAAeanVtZGMycGEAEQAQgAAAqgA4m3EDYzJwYQAAABZcanVtYgAAAEdqdW1kYzJtYQARABCAAACqADibcQN1cm46YzJwYTpiNTg5OTFhYy1mY2JkLTQyYmQtYjRkMC1hOThlMzJhMDA1YTQAAAADl2p1bWIAAAApanVtZGMyYXMAEQAQgAAAqgA4m3EDYzJwYS5hc3NlcnRpb25zAAAAALxqdW1iAAAARGp1bWRjYm9yABEAEIAAAKoAOJtxE2MycGEuaW5ncmVkaWVudC52MwAAAAAYYzJzaOY1kwmYLcvT+22bGYB/qk0AAABwY2JvcqNpZGM6Zm9ybWF0bWltYWdlL3N2Zyt4bWxqaW5zdGFuY2VJRHgseG1wOmlpZDpjMDNmODFiZi05YzViLTQxYzAtYWExMy0wMDZhNDAyZTllMTZscmVsYXRpb25zaGlwaHBhcmVudE9mAAAB4mp1bWIAAABBanVtZGNib3IAEQAQgAAAqgA4m3ETYzJwYS5hY3Rpb25zLnYyAAAAABhjMnNoCPC+mHU+gKwJAvBoGIQN7gAAAZljYm9yomdhY3Rpb25zgqJmYWN0aW9ua2MycGEub3BlbmVkanBhcmFtZXRlcnOha2luZ3JlZGllbnRzgaJjdXJseC1zZWxmI2p1bWJmPWMycGEuYXNzZXJ0aW9ucy9jMnBhLmluZ3JlZGllbnQudjNkaGFzaFggdzFmC6hMkLNVjKPTvGKC0kAi6mckxpgFThZt0OuF9JakZmFjdGlvbngdY29tLmFudGhyb3BpYy5jbGF1ZGUucHJvdmlkZWRqcGFyYW1ldGVyc6F4H2NvbS5hbnRocm9waWMub3JpZ2luLWNvbmZpZGVuY2VndW5rbm93bmtkZXNjcmlwdGlvbnhmQ2xhdWRlIHByb3ZpZGVkIHRoaXMgZmlsZSBhdCB0aGUgcmVxdWVzdCBvZiBhIHVzZXIgYW5kIG1heSBoYXZlIGNyZWF0ZWQgb3IgbW9kaWZpZWQgdGhlIGZpbGUgY29udGVudHMubXNvZnR3YXJlQWdlbnShZG5hbWVmQ2xhdWRlcmFsbEFjdGlvbnNJbmNsdWRlZPUAAADIanVtYgAAAEBqdW1kY2JvcgARABCAAACqADibcRNjMnBhLmhhc2guZGF0YQAAAAAYYzJzaHpv8CQAXruHxXRxWlEHYzMAAACAY2JvcqVjYWxnZnNoYTI1NmNwYWRMAAAAAAAAAAAAAAAAZGhhc2hYIM1hz8yFkCjh8G5Xgh//V+1hP85VBMhBm6ISVOTpQmcVZG5hbWVuanVtYmYgbWFuaWZlc3RqZXhjbHVzaW9uc4GiZXN0YXJ0GQFVZmxlbmd0aBkeBAAAAj5qdW1iAAAAJ2p1bWRjMmNsABEAEIAAAKoAOJtxA2MycGEuY2xhaW0udjIAAAACD2Nib3KlY2FsZ2ZzaGEyNTZpc2lnbmF0dXJleE1zZWxmI2p1bWJmPS9jMnBhL3VybjpjMnBhOmI1ODk5MWFjLWZjYmQtNDJiZC1iNGQwLWE5OGUzMmEwMDVhNC9jMnBhLnNpZ25hdHVyZWppbnN0YW5jZUlEeCx4bXA6aWlkOjI2MzRhOGY0LTMxMjgtNDg5ZC05ODU1LWE4NzU4MzdkNmRjZXJjcmVhdGVkX2Fzc2VydGlvbnODomN1cmx4LXNlbGYjanVtYmY9YzJwYS5hc3NlcnRpb25zL2MycGEuaW5ncmVkaWVudC52M2RoYXNoWCB3MWYLqEyQs1WMo9O8YoLSQCLqZyTGmAVOFm3Q64X0lqJjdXJseCpzZWxmI2p1bWJmPWMycGEuYXNzZXJ0aW9ucy9jMnBhLmFjdGlvbnMudjJkaGFzaFggs9foiGLwRrtngoAfnPBItQV1Ln7EdGU4X+Fi+Ap7pb+iY3VybHgpc2VsZiNqdW1iZj1jMnBhLmFzc2VydGlvbnMvYzJwYS5oYXNoLmRhdGFkaGFzaFggOrxbIZ0SawngNbkB/uLqY5Fp6uQtbOhM1iTmszbKzcN0Y2xhaW1fZ2VuZXJhdG9yX2luZm+jZG5hbWVvQW50aHJvcGljIEZpbGVzZ3ZlcnNpb25lMS4wLjBrc3BlY1ZlcnNpb25lMi40LjAAABA4anVtYgAAAChqdW1kYzJjcwARABCAAACqADibcQNjMnBhLnNpZ25hdHVyZQAAABAIY2JvctKEWQISogEmGCFZAgowggIGMIIBjaADAgECAhRA5aAK7sI50L64g/oGQgU9Z1UTADAKBggqhkjOPQQDAzBJMRcwFQYDVQQKEw5BbnRocm9waWMsIFBCQzEuMCwGA1UEAxMlQW50aHJvcGljIENvbnRlbnQgQ3JlZGVudGlhbHMgUm9vdCBDQTAeFw0yNjA4MDcxODQzNTZaFw0yODA4MDYxOTQzNTZaMEQxFzAVBgNVBAoTDkFudGhyb3BpYywgUEJDMSkwJwYDVQQDEyBBbnRocm9waWMgQ2xhdWRlIENvbnRlbnQgU2lnbmluZzBZMBMGByqGSM49AgEGCCqGSM49AwEHA0IABJh6CmvLUBgFFNU0vUKlOVtE6djd17L5SuwX0LemFisBM3dkd/3cyjxFA3Qo5S46fX0/ihY0VZ7mfb9KF703t5OjWDBWMA4GA1UdDwEB/wQEAwIHgDAVBgNVHSUEDjAMBgorBgEEAYPoXgIBMAwGA1UdEwEB/wQCMAAwHwYDVR0jBBgwFoAUzlHiBIFOZFsj+OPEz5o+nMHXXMIwCgYIKoZIzj0EAwMDZwAwZAIwMXMdFJ4BetLLVY7ORuE9noqbbAZOZn/aArXyTwFAZfKrPzxF2vPoJNf1+UCdg1XGAjBwX1zd9WGqYkqmL5SFqw1QySjr1zJfpJM9+1rdDwSPLMOPOjKuiXjoU/pUUeG9RwmhY3BhZFkNngAAAAAAAAAAAAAAAAAAAAAAAAAAAAAAAAAAAAAAAAAAAAAAAAAAAAAAAAAAAAAAAAAAAAAAAAAAAAAAAAAAAAAAAAAAAAAAAAAAAAAAAAAAAAAAAAAAAAAAAAAAAAAAAAAAAAAAAAAAAAAAAAAAAAAAAAAAAAAAAAAAAAAAAAAAAAAAAAAAAAAAAAAAAAAAAAAAAAAAAAAAAAAAAAAAAAAAAAAAAAAAAAAAAAAAAAAAAAAAAAAAAAAAAAAAAAAAAAAAAAAAAAAAAAAAAAAAAAAAAAAAAAAAAAAAAAAAAAAAAAAAAAAAAAAAAAAAAAAAAAAAAAAAAAAAAAAAAAAAAAAAAAAAAAAAAAAAAAAAAAAAAAAAAAAAAAAAAAAAAAAAAAAAAAAAAAAAAAAAAAAAAAAAAAAAAAAAAAAAAAAAAAAAAAAAAAAAAAAAAAAAAAAAAAAAAAAAAAAAAAAAAAAAAAAAAAAAAAAAAAAAAAAAAAAAAAAAAAAAAAAAAAAAAAAAAAAAAAAAAAAAAAAAAAAAAAAAAAAAAAAAAAAAAAAAAAAAAAAAAAAAAAAAAAAAAAAAAAAAAAAAAAAAAAAAAAAAAAAAAAAAAAAAAAAAAAAAAAAAAAAAAAAAAAAAAAAAAAAAAAAAAAAAAAAAAAAAAAAAAAAAAAAAAAAAAAAAAAAAAAAAAAAAAAAAAAAAAAAAAAAAAAAAAAAAAAAAAAAAAAAAAAAAAAAAAAAAAAAAAAAAAAAAAAAAAAAAAAAAAAAAAAAAAAAAAAAAAAAAAAAAAAAAAAAAAAAAAAAAAAAAAAAAAAAAAAAAAAAAAAAAAAAAAAAAAAAAAAAAAAAAAAAAAAAAAAAAAAAAAAAAAAAAAAAAAAAAAAAAAAAAAAAAAAAAAAAAAAAAAAAAAAAAAAAAAAAAAAAAAAAAAAAAAAAAAAAAAAAAAAAAAAAAAAAAAAAAAAAAAAAAAAAAAAAAAAAAAAAAAAAAAAAAAAAAAAAAAAAAAAAAAAAAAAAAAAAAAAAAAAAAAAAAAAAAAAAAAAAAAAAAAAAAAAAAAAAAAAAAAAAAAAAAAAAAAAAAAAAAAAAAAAAAAAAAAAAAAAAAAAAAAAAAAAAAAAAAAAAAAAAAAAAAAAAAAAAAAAAAAAAAAAAAAAAAAAAAAAAAAAAAAAAAAAAAAAAAAAAAAAAAAAAAAAAAAAAAAAAAAAAAAAAAAAAAAAAAAAAAAAAAAAAAAAAAAAAAAAAAAAAAAAAAAAAAAAAAAAAAAAAAAAAAAAAAAAAAAAAAAAAAAAAAAAAAAAAAAAAAAAAAAAAAAAAAAAAAAAAAAAAAAAAAAAAAAAAAAAAAAAAAAAAAAAAAAAAAAAAAAAAAAAAAAAAAAAAAAAAAAAAAAAAAAAAAAAAAAAAAAAAAAAAAAAAAAAAAAAAAAAAAAAAAAAAAAAAAAAAAAAAAAAAAAAAAAAAAAAAAAAAAAAAAAAAAAAAAAAAAAAAAAAAAAAAAAAAAAAAAAAAAAAAAAAAAAAAAAAAAAAAAAAAAAAAAAAAAAAAAAAAAAAAAAAAAAAAAAAAAAAAAAAAAAAAAAAAAAAAAAAAAAAAAAAAAAAAAAAAAAAAAAAAAAAAAAAAAAAAAAAAAAAAAAAAAAAAAAAAAAAAAAAAAAAAAAAAAAAAAAAAAAAAAAAAAAAAAAAAAAAAAAAAAAAAAAAAAAAAAAAAAAAAAAAAAAAAAAAAAAAAAAAAAAAAAAAAAAAAAAAAAAAAAAAAAAAAAAAAAAAAAAAAAAAAAAAAAAAAAAAAAAAAAAAAAAAAAAAAAAAAAAAAAAAAAAAAAAAAAAAAAAAAAAAAAAAAAAAAAAAAAAAAAAAAAAAAAAAAAAAAAAAAAAAAAAAAAAAAAAAAAAAAAAAAAAAAAAAAAAAAAAAAAAAAAAAAAAAAAAAAAAAAAAAAAAAAAAAAAAAAAAAAAAAAAAAAAAAAAAAAAAAAAAAAAAAAAAAAAAAAAAAAAAAAAAAAAAAAAAAAAAAAAAAAAAAAAAAAAAAAAAAAAAAAAAAAAAAAAAAAAAAAAAAAAAAAAAAAAAAAAAAAAAAAAAAAAAAAAAAAAAAAAAAAAAAAAAAAAAAAAAAAAAAAAAAAAAAAAAAAAAAAAAAAAAAAAAAAAAAAAAAAAAAAAAAAAAAAAAAAAAAAAAAAAAAAAAAAAAAAAAAAAAAAAAAAAAAAAAAAAAAAAAAAAAAAAAAAAAAAAAAAAAAAAAAAAAAAAAAAAAAAAAAAAAAAAAAAAAAAAAAAAAAAAAAAAAAAAAAAAAAAAAAAAAAAAAAAAAAAAAAAAAAAAAAAAAAAAAAAAAAAAAAAAAAAAAAAAAAAAAAAAAAAAAAAAAAAAAAAAAAAAAAAAAAAAAAAAAAAAAAAAAAAAAAAAAAAAAAAAAAAAAAAAAAAAAAAAAAAAAAAAAAAAAAAAAAAAAAAAAAAAAAAAAAAAAAAAAAAAAAAAAAAAAAAAAAAAAAAAAAAAAAAAAAAAAAAAAAAAAAAAAAAAAAAAAAAAAAAAAAAAAAAAAAAAAAAAAAAAAAAAAAAAAAAAAAAAAAAAAAAAAAAAAAAAAAAAAAAAAAAAAAAAAAAAAAAAAAAAAAAAAAAAAAAAAAAAAAAAAAAAAAAAAAAAAAAAAAAAAAAAAAAAAAAAAAAAAAAAAAAAAAAAAAAAAAAAAAAAAAAAAAAAAAAAAAAAAAAAAAAAAAAAAAAAAAAAAAAAAAAAAAAAAAAAAAAAAAAAAAAAAAAAAAAAAAAAAAAAAAAAAAAAAAAAAAAAAAAAAAAAAAAAAAAAAAAAAAAAAAAAAAAAAAAAAAAAAAAAAAAAAAAAAAAAAAAAAAAAAAAAAAAAAAAAAAAAAAAAAAAAAAAAAAAAAAAAAAAAAAAAAAAAAAAAAAAAAAAAAAAAAAAAAAAAAAAAAAAAAAAAAAAAAAAAAAAAAAAAAAAAAAAAAAAAAAAAAAAAAAAAAAAAAAAAAAAAAAAAAAAAAAAAAAAAAAAAAAAAAAAAAAAAAAAAAAAAAAAAAAAAAAAAAAAAAAAAAAAAAAAAAAAAAAAAAAAAAAAAAAAAAAAAAAAAAAAAAAAAAAAAAAAAAAAAAAAAAAAAAAAAAAAAAAAAAAAAAAAAAAAAAAAAAAAAAAAAAAAAAAAAAAAAAAAAAAAAAAAAAAAAAAAAAAAAAAAAAAAAAAAAAAAAAAAAAAAAAAAAAAAAAAAAAAAAAAAAAAAAAAAAAAAAAAAAAAAAAAAAAAAAAAAAAAAAAAAAAAAAAAAAAAAAAAAAAAAAAAAAAAAAAAAAAAAAAAAAAAAAAAAAAAAAAAAAAAAAAAAAAAAAAAAAAAAAAAAAAAAAAAAAAAAAAAAAAAAAAAAAAAAAAAAAAAAAAAAAAAAAAAAAAAAAAAAAAAAAAAAAAAAAAAAAAAAAAAAAAAAAAAAAAAAAAAAAAAAAAAAAAAAAAAAAAAAAAAAAAAAAAAAAAAAAAAAAAAAAAAAAAAAAAAAAAAAAAAAAAAAAAAAAAAAAAAAAAAAAAAAAAAAAAAAAAAAAAAAAAAAAAAAAAAAAAAAAAAAAAAAAAAAAAAAAAAAAAAAAAAAAAAAAAAAAAAAAAAAAAAAAAAAAAAAAAAAAAAAAAAAAAAAAAAAAAAAAAAAAAAAAAAAAAAAAAAAAAAAAAAAAAAAAAAAAAAAAAAAAAAAAAAAAAAAAAAAAAAAAAAAAAAAAAAAAAAAAAAAAAAAAAAAAAAAAAAAAAAAAAAAAAAAAAAAAAAAAAAAAAAAAAAAAAAAAAAAAAAAAAAAAAAAAAAAAAAAAAAAAAAAAAAAAAAAAAAAAAAAAAAAAAAAAAAAAAAAAAAAAAAAAAAAAAAAAAAAAAAAAAAAAAAAAAAAAAAAAAAAAAAAAAAAAAAAAAAAAAAAAAAAAAAAAAAAAAAAAAAAAAAAAAAAAAAAAAAAAAAAAAAAAAAAAAAAAAAAAAAAAAAAAAAAAAAAAAAAAAAAAAAAAAAAAAAAAAAAAAAAAAAAAAAAAAAAAAAAAAAAAAAAAAAAAAAAAAAAAAAAAAAAAAAAAAAAAAAAAAAAAAAAAAAAAAAAAAAAAAAAAAAAAAAAAAAAAAAAAAAAAAAAAAAAAAAAAAAAAAAAAAAAAAAAAAAAAAAAAAAAAAAAAAAAAAAAAAAAAAAAAAAAAAAAAAAAAAAAAAAAAAAAAAAAAAAAAAAAAAAAAAAAAAAAAAAAAAAAAAAAAAAAAAAAAAAAAAAAAAAAAAAAAAAAAAAAAAAAAAAAAAAAAAAAAAAAAAAAAAAAAAAAAAAAAAAAAAAAAAAAAAAAAAAAAAAAAAAAAAAAAAAAAAAAAAAAAAAAAAAAAAAAAAAAAAAAAAAAAAAAAAAAAAAAAAAAAAAAAAAAAAAAAAAAAAAAAAAAAAAAAAAAAAAAAAAAAAAAAAAAAAAAAAAAAAAAAAAAAAAAAAAAAAAAAAAAAAAAAAAAAAAAAAAAAAAAAAAAAAAAAAAAAAAAAAAAAAAAAAAAAAAAAAAAAAAAAAAAAAAAAAAAAAAAAAAAAAAAAAAAAAAAAAAAAAAAAAAAAAAAAAAAAAAAAAAAAAAAAAAAAAAAAAAAAAAAAAAAAAAAAAAAAAAAAAAAAAAAAAAAAAAAAAAAAAAAAAAAAAAAAAAAAAAAAAPZYQAEqWEsHITfkEmFDGK+h4q7vct9JO//soNQPkZCcG3I0u4jacBbld/daCyX9xWhiuJJGsjtmAHLNOwvioJrCmPU=</c2pa:manifest></metadata>
<defs></defs>
<rect width="794" height="1123" fill="#ffffff" stroke="none"></rect>
<path d="M58,28 Q86,31.2 106.8,29.5 Q126.3,30.1 156.8,29.6 Q177.7,27.8 206,28.9 Q224.5,30.7 249.2,29.4 Q277.7,25.2 298.2,29.3 Q320.9,29 348.4,27.6 Q368.5,24.3 395.4,29.3 Q420.7,23.5 446.1,27.1 Q473.1,29.6 491.6,30.9 Q515.3,31.5 544.9,26.4 Q565.6,23.3 588.5,26.3 Q611.9,29.4 639.5,29.3 Q666.8,31.7 689.7,26.8 Q715.1,26.6 736,28 Q766,28 766,58 Q769.6,80.4 763.4,108.1 Q767.2,136.6 766.9,160.9 Q765.1,180.6 766.6,211.6 Q766.7,234.9 764.4,257.5 Q765.9,285.1 767.2,306.8 Q763.6,335.2 767.4,360.5 Q765.1,388.2 765.8,408.1 Q768.8,432.4 764.1,460.5 Q761.7,489.7 768.9,510.6 Q767.3,540.6 768.8,559.1 Q763.3,589.9 765.9,613.3 Q769.6,634.8 764.6,660.2 Q765.5,687.8 767.4,711.1 Q761.6,738.9 767.1,760.2 Q765,791.5 764.7,816.1 Q767.1,834.9 768,866.5 Q768.7,893.1 768.6,916.9 Q770.3,937.8 763.1,961.8 Q770.2,986 764.1,1015.6 Q769.1,1039.3 766,1065 Q766,1095 736,1095 Q707.3,1090.5 689.8,1097.1 Q666.1,1095.1 639.7,1095.3 Q619.2,1097.5 593.3,1092.1 Q564.6,1090.6 544.4,1095.7 Q522.7,1097.4 496.5,1096.3 Q472.7,1091.8 446,1094.6 Q420.6,1093.5 394.2,1092.8 Q373.6,1096.9 346.5,1092.4 Q326.5,1096.8 303.1,1097.7 Q279.7,1094.6 251.3,1094.8 Q226.7,1096 200.8,1096.8 Q182.5,1092.9 157.2,1095.5 Q129.3,1092.9 106.8,1093.8 Q80.5,1098.6 58,1095 Q28,1095 28,1065 Q23.5,1040.8 30.3,1015.5 Q29.4,986.9 30.3,963.4 Q27.5,940.3 25.4,915.3 Q24.6,885.1 30.3,865 Q27,839.5 31,814.4 Q28.6,792.8 27.9,760.9 Q23.5,738.8 26.2,714.1 Q31.1,689 30.3,665.1 Q24,635.9 25.3,614.4 Q28.4,583.4 28.1,561.8 Q25.2,533.9 26.8,511 Q31.1,485.8 26.7,463.6 Q30.9,433.4 28.8,409.2 Q29.9,387.7 25,360.7 Q27.7,338.1 26.5,307.4 Q23.7,285.8 29.2,258.3 Q32.6,233 28.7,208.1 Q24.5,188.5 26,159.6 Q31,134.4 26.2,110.9 Q29.7,78.5 28,58 Q28,28 58,28 Z" stroke-width="4"></path><text x="397" y="240" font-family="Heebo, sans-serif" font-size="220" font-weight="700" text-anchor="middle" direction="rtl" fill="none" stroke="#9a9a9a" stroke-width="4" stroke-dasharray="0 10" stroke-linecap="round">נ</text><text x="397" y="320" font-family="Heebo, sans-serif" font-size="26" font-weight="700" text-anchor="middle" direction="rtl" fill="#2d2d2d" stroke="none">נוּן</text><path d="M232,447 Q249.8,448.3 268,447 Q272,447 272,451 Q270.8,484.2 271,514.8 Q271.9,544.4 272,575 Q272,579 268,579 Q250.1,581.8 232,579 Q228,579 228,575 Q226.7,547 229,514.8 Q229.2,483.7 228,451 Q228,447 232,447 Z" fill="#ffffff"></path><path d="M228,480 L272,466.8 M228,515.2 L272,502 M228,550.4 L272,537.2" stroke-width="2"></path><path d="M250,447 Q251.1,436 250,427.2" stroke-width="2"></path><path d="M250,427.2 C228,400.8 232.4,370 250,352.4 C267.6,370 272,400.8 250,427.2 Z" fill="#ffffff"></path><path d="M250,414 q-8.8,-17.6 0,-30.8 q8.8,13.2 0,30.8 Z" stroke-width="2" fill="#ffffff"></path><text x="480" y="490" font-family="Kalam, cursive" font-size="30" font-weight="700" text-anchor="start" direction="rtl" fill="#2d2d2d" stroke="none">נ = נֵר</text><path d="M70,708 Q94.5,707.4 119.9,708 Q144.4,708.9 170.6,708.1 Q196.9,706.7 221.5,708 Q246,708.1 271.2,708.8 Q297.2,708.9 321.3,708.1 Q346,707.7 372.6,707.9 Q396.5,708.1 422.3,707.8 Q447.5,708.6 472.9,707.4 Q498.3,708.6 522.3,707.7 Q547,708.7 572.9,708.1 Q597.2,708 623.5,707.4 Q648.6,707.5 674,707.6 Q699.3,707.7 724,708" stroke-width="1.2" stroke-dasharray="2 5"></path><text x="120" y="700" font-family="Heebo, sans-serif" font-size="64" font-weight="700" text-anchor="middle" direction="rtl" fill="none" stroke="#9a9a9a" stroke-width="2" stroke-dasharray="0 6" stroke-linecap="round">נ</text><text x="250" y="700" font-family="Heebo, sans-serif" font-size="64" font-weight="700" text-anchor="middle" direction="rtl" fill="none" stroke="#9a9a9a" stroke-width="2" stroke-dasharray="0 6" stroke-linecap="round">נ</text><text x="380" y="700" font-family="Heebo, sans-serif" font-size="64" font-weight="700" text-anchor="middle" direction="rtl" fill="none" stroke="#9a9a9a" stroke-width="2" stroke-dasharray="0 6" stroke-linecap="round">נ</text><text x="510" y="700" font-family="Heebo, sans-serif" font-size="64" font-weight="700" text-anchor="middle" direction="rtl" fill="none" stroke="#9a9a9a" stroke-width="2" stroke-dasharray="0 6" stroke-linecap="round">נ</text><text x="640" y="700" font-family="Heebo, sans-serif" font-size="64" font-weight="700" text-anchor="middle" direction="rtl" fill="none" stroke="#9a9a9a" stroke-width="2" stroke-dasharray="0 6" stroke-linecap="round">נ</text><path d="M70,782 Q94.8,781.1 120.9,781.5 Q146.7,782.8 171,782.5 Q194.7,782.6 220.6,781.5 Q245.6,782.8 271.6,782.5 Q297.5,783 321.2,781.9 Q345.6,783.1 371.8,781.3 Q396.6,782.6 422.2,782 Q448,783.2 471.8,782.5 Q496.8,781.2 523.4,782.6 Q548.4,781.1 573.4,782 Q597.3,782.7 624.2,781.8 Q649.6,781 673,781.4 Q698.8,781.3 724,782" stroke-width="1.2" stroke-dasharray="2 5"></path><text x="120" y="774" font-family="Heebo, sans-serif" font-size="48" font-weight="700" text-anchor="middle" direction="rtl" fill="none" stroke="#9a9a9a" stroke-width="2" stroke-dasharray="0 6" stroke-linecap="round">נ</text><text x="250" y="774" font-family="Heebo, sans-serif" font-size="48" font-weight="700" text-anchor="middle" direction="rtl" fill="none" stroke="#9a9a9a" stroke-width="2" stroke-dasharray="0 6" stroke-linecap="round">נ</text><text x="380" y="774" font-family="Heebo, sans-serif" font-size="48" font-weight="700" text-anchor="middle" direction="rtl" fill="none" stroke="#9a9a9a" stroke-width="2" stroke-dasharray="0 6" stroke-linecap="round">נ</text><text x="510" y="774" font-family="Heebo, sans-serif" font-size="48" font-weight="700" text-anchor="middle" direction="rtl" fill="none" stroke="#9a9a9a" stroke-width="2" stroke-dasharray="0 6" stroke-linecap="round">נ</text><text x="640" y="774" font-family="Heebo, sans-serif" font-size="48" font-weight="700" text-anchor="middle" direction="rtl" fill="none" stroke="#9a9a9a" stroke-width="2" stroke-dasharray="0 6" stroke-linecap="round">נ</text><path d="M70,856 Q95.9,856.3 120.6,856.2 Q144.4,855.8 171.2,855.9 Q196.5,855.8 220.4,855.8 Q246.6,855.3 270.6,855.5 Q295.5,856.1 321.2,855.3 Q345.9,856.9 371.3,855.9 Q397.4,855.6 421.7,855.6 Q448.1,856.2 473.2,856.7 Q497.5,855.7 523.5,855.8 Q547.9,857.1 573.5,856.1 Q598,855.5 622.8,855.4 Q648.2,856.3 673.8,855.8 Q699.5,856.4 724,856" stroke-width="1.2" stroke-dasharray="2 5"></path><text x="120" y="848" font-family="Heebo, sans-serif" font-size="34" font-weight="700" text-anchor="middle" direction="rtl" fill="none" stroke="#9a9a9a" stroke-width="2" stroke-dasharray="0 6" stroke-linecap="round">נ</text><text x="250" y="848" font-family="Heebo, sans-serif" font-size="34" font-weight="700" text-anchor="middle" direction="rtl" fill="none" stroke="#9a9a9a" stroke-width="2" stroke-dasharray="0 6" stroke-linecap="round">נ</text><text x="380" y="848" font-family="Heebo, sans-serif" font-size="34" font-weight="700" text-anchor="middle" direction="rtl" fill="none" stroke="#9a9a9a" stroke-width="2" stroke-dasharray="0 6" stroke-linecap="round">נ</text><text x="510" y="848" font-family="Heebo, sans-serif" font-size="34" font-weight="700" text-anchor="middle" direction="rtl" fill="none" stroke="#9a9a9a" stroke-width="2" stroke-dasharray="0 6" stroke-linecap="round">נ</text><text x="640" y="848" font-family="Heebo, sans-serif" font-size="34" font-weight="700" text-anchor="middle" direction="rtl" fill="none" stroke="#9a9a9a" stroke-width="2" stroke-dasharray="0 6" stroke-linecap="round">נ</text><text x="397" y="1096" font-family="Heebo, sans-serif" font-size="14" font-weight="700" text-anchor="middle" direction="rtl" fill="#2d2d2d" stroke="none">UGABUGA</text>
</svg>