<?xml version="1.0"?><svg xmlns="http://www.w3.org/2000/svg" xmlns:xlink="http://www.w3.org/1999/xlink" width="210mm" height="297mm" viewBox="0 0 794 1123" fill="none" stroke="#2d2d2d" stroke-width="3" stroke-linecap="round" stroke-linejoin="round" font-family="Kalam, cursive">
<defs></defs>
<rect width="794" height="1123" fill="#ffffff" stroke="none"></rect>
<path d="M58,28 Q81.9,29.9 107.3,30.3 Q128.4,25.6 157.7,27 Q181.3,23.7 200.5,28.7 Q229.7,32.6 248.7,26 Q276.9,27.3 300.4,29.3 Q321.3,25.5 348.8,26.6 Q372.3,26.6 397.5,30.1 Q419.9,28.2 447.9,25.6 Q468.3,25.2 493.4,26.6 Q518.6,26.8 539.6,27.9 Q568.7,31.5 589.8,29.5 Q614.4,29.2 637.9,28.6 Q658.7,32.5 687.8,25.3 Q708.6,27.3 736,28 Q766,28 766,58 Q767.8,81.3 766.1,106.6 Q764.5,134.3 765.2,156.1 Q769.7,185.4 764.4,207.4 Q764.1,233.2 764.9,260.1 Q767,288.6 767.3,309.7 Q766.5,335.6 763.6,359.6 Q767.5,387.3 763.8,412.8 Q769.8,438.5 768.3,459.9 Q765.8,486.9 764.1,509.1 Q765.6,534.6 764.4,564 Q764.5,591 765,609.6 Q768.8,634.5 765.7,659.9 Q761.4,683.1 768.1,714.1 Q767.5,733.2 763.4,761.3 Q761.7,789.7 763.4,810.7 Q764.3,838.2 764.7,862.1 Q767,891 767.2,915.6 Q764.9,942.4 766.6,963.1 Q769,989.9 764.1,1016.2 Q763.7,1038.7 766,1065 Q766,1095 736,1095 Q711,1097.3 689.3,1092.7 Q668,1094.3 636.7,1093 Q616.9,1091.6 588.3,1097.8 Q563.9,1098.1 541.5,1093.3 Q520.7,1090.9 496.2,1092.5 Q465.9,1095.2 448.4,1097.7 Q417.3,1096.6 396.7,1094.1 Q373.2,1094.1 351.4,1097.8 Q321,1090.5 300.4,1093 Q278.8,1092.3 252.6,1092.5 Q226.8,1094.6 200.4,1094.7 Q176.8,1099 154.8,1096.2 Q129.1,1094.8 105.1,1097.3 Q79,1098.5 58,1095 Q28,1095 28,1065 Q28.1,1040.5 27.2,1015.6 Q24.1,990.7 27.8,966.3 Q24,941.6 25.8,912.4 Q23.9,884.8 29.3,865.4 Q28.1,842.9 28.8,814.3 Q30,785.6 25.7,763.3 Q23.9,734.8 27.7,714.6 Q31.9,684.3 27.7,660.4 Q28.9,638.5 25.5,609.6 Q24.9,590.7 26.5,559.9 Q29.3,531.9 27,510.2 Q26.2,486.6 30.5,462.7 Q25.8,431.9 29.5,410.4 Q29.7,388.6 30.8,359.9 Q26.3,335.6 25.5,307.9 Q32.8,287.9 26.7,261.6 Q25.6,232 30.5,206.7 Q30.8,180.3 28,157.3 Q28.9,135.5 26.5,105.4 Q26.3,80 28,58 Q28,28 58,28 Z" stroke-width="4"></path><text x="397" y="70" font-family="Kalam, cursive" font-size="34" font-weight="700" text-anchor="middle" direction="rtl" fill="#2d2d2d" stroke="none">דף פתרון — סודוקו BUGA</text><text x="200" y="130" font-family="Kalam, cursive" font-size="26" font-weight="700" text-anchor="middle" direction="rtl" fill="#2d2d2d" stroke="none">⭐</text><text x="200" y="155" font-family="Heebo, sans-serif" font-size="18" font-weight="700" text-anchor="middle" direction="rtl" fill="#2d2d2d" stroke="none">קל</text><path d="M84,190 Q108.6,191.6 135.6,191 Q158.2,191.5 183.6,188.7 Q208.9,191.2 234.9,189.2 Q261.6,189.2 286.9,190.2 Q311.9,188.5 336,190 Q340,190 340,194 Q342,219.5 340.2,245.5 Q340.9,269.5 338.6,293.4 Q341.2,318.7 341.2,345.4 Q339.1,369.2 340.8,395.2 Q341.4,421.2 340,446 Q340,450 336,450 Q310.6,451.1 286.4,448.6 Q261.6,452.3 234.6,449.2 Q210,451 184.1,451.2 Q160.4,449.6 134.1,450.7 Q110.6,451.7 84,450 Q80,450 80,446 Q78.6,420.9 81.3,394.3 Q81.7,371.1 81,344.1 Q80.6,317.7 80.3,296.1 Q80.7,271.2 78.5,244.6 Q78.2,217.8 80,194 Q80,190 84,190 Z" stroke-width="3.5"></path><path d="M464,190 Q490.4,189.5 515,188.9 Q541.5,189.1 564,189.9 Q591.3,188.8 616.5,190.8 Q642.3,189.9 666.4,191 Q692.5,188.9 716,190 Q720,190 720,194 Q721.8,221.2 720.8,244.8 Q720.9,269 721.3,295.6 Q721.9,318.5 721.3,343.7 Q721,371.5 721.1,395.6 Q719.9,420.3 720,446 Q720,450 716,450 Q691.5,448 667,449.5 Q638,449.6 616.6,451 Q587.7,451.4 565.1,451.4 Q539,449.5 515.3,450.4 Q488.6,448.8 464,450 Q460,450 460,446 Q457.7,421.7 459.5,396.5 Q459.7,371.2 460.1,345.2 Q462.2,317.8 458.9,295.9 Q460.5,269.9 461.5,243.1 Q460.9,219.1 460,194 Q460,190 464,190 Z" stroke-width="3.5"></path><text x="200" y="500" font-family="Kalam, cursive" font-size="26" font-weight="700" text-anchor="middle" direction="rtl" fill="#2d2d2d" stroke="none">⭐⭐</text><text x="200" y="525" font-family="Heebo, sans-serif" font-size="18" font-weight="700" text-anchor="middle" direction="rtl" fill="#2d2d2d" stroke="none">בינוני</text><path d="M34,580 Q58.7,579.2 85.4,580.2 Q109.7,579.6 135.7,579.9 Q158.3,578.8 184.7,580.6 Q209.1,579 234.6,581.5 Q261.2,577.8 285.8,580.7 Q311.5,578.5 335,579.1 Q360.3,578.2 386,580 Q390,580 390,584 Q388.4,608.3 389.1,632.9 Q392.1,661.8 390.1,683.7 Q389.4,710.5 391.1,734.7 Q389.4,759.4 390.3,784.2 Q387.9,807.9 391.3,834.1 Q391.7,862.5 391,886.9 Q388.8,910.5 390,936 Q390,940 386,940 Q362.9,939.2 334.8,939.1 Q308.4,940.4 285.3,940.9 Q259.3,939.3 235.2,938.8 Q208.8,939.5 184.8,939.2 Q160.6,938.4 134.7,941.1 Q108.9,940 84.7,941 Q61,939.6 34,940 Q30,940 30,936 Q30,911.8 29.6,884.5 Q32.1,861.2 31.5,834.3 Q30.6,811.9 30.5,784.3 Q29,761.9 30.1,733.7 Q28.1,710.4 30.6,684.1 Q31.4,660.9 30.8,633.4 Q31,607.8 30,584 Q30,580 34,580 Z" stroke-width="3.5"></path><path d="M414,580 Q440,580.5 463.1,580.6 Q490.9,578.5 513.6,579.2 Q540.9,579.4 566.2,580 Q588.2,578.2 615.2,578.6 Q639.8,582.1 664.4,578.8 Q692.3,580.4 714.8,579.3 Q739.4,578.4 766,580 Q770,580 770,584 Q769.8,611 770.2,634.1 Q769,661 770.6,684.2 Q768.1,710.2 770.5,735 Q770.7,758.1 768.6,785.1 Q771.1,812.2 771.2,834.6 Q771.5,862.7 770.6,887 Q772,913 770,936 Q770,940 766,940 Q742.8,938.1 716.2,940.7 Q689.2,940.1 664.8,940.2 Q640.4,939.2 614.9,941.1 Q592.2,942.2 563.8,939.9 Q540.3,938.5 514.3,939.9 Q487.4,938.9 464.6,938.6 Q439.6,940.3 414,940 Q410,940 410,936 Q409,910.9 409.8,884.2 Q409.6,859.5 408.9,835.5 Q411.1,808.4 410,784.5 Q409.3,757.7 408.8,734.3 Q412.3,709.1 410.2,685 Q407.7,660.3 409.1,634.2 Q410.5,608.1 410,584 Q410,580 414,580 Z" stroke-width="3.5"></path><text x="397" y="1060" font-size="16" fill="#2a78d6" stroke="none" text-anchor="middle" direction="rtl" font-family="Heebo, sans-serif">בכחול: המספרים שהיה צריך להשלים</text><text x="397" y="1096" font-family="Heebo, sans-serif" font-size="14" font-weight="700" text-anchor="middle" direction="rtl" fill="#2d2d2d" stroke="none">UGABUGA</text>
<path d="M80,255 Q96.2,255.1 112.5,255.0 Q128.8,255.6 145.0,255.0 Q161.2,254.8 177.5,255.0 Q193.8,255.5 210.0,255.0 Q226.2,254.3 242.5,255.0 Q258.8,254.9 275.0,255.0 Q291.2,255.0 307.5,255.0 Q323.8,254.7 340.0,255.0" stroke-width="1.3"></path>
<path d="M145,190 Q144.6,206.2 145.0,222.5 Q144.3,238.8 145.0,255.0 Q145.7,271.2 145.0,287.5 Q144.9,303.8 145.0,320.0 Q145.1,336.2 145.0,352.5 Q144.5,368.8 145.0,385.0 Q145.3,401.2 145.0,417.5 Q144.4,433.8 145.0,450.0" stroke-width="1.3"></path>
<path d="M80,320 Q96.2,319.3 112.5,320.0 Q128.8,319.5 145.0,320.0 Q161.2,319.8 177.5,320.0 Q193.8,320.3 210.0,320.0 Q226.2,320.7 242.5,320.0 Q258.8,320.2 275.0,320.0 Q291.2,320.2 307.5,320.0 Q323.8,320.7 340.0,320.0" stroke-width="3"></path>
<path d="M210,190 Q210.1,206.2 210.0,222.5 Q209.5,238.8 210.0,255.0 Q210.3,271.2 210.0,287.5 Q210.3,303.8 210.0,320.0 Q209.5,336.2 210.0,352.5 Q209.9,368.8 210.0,385.0 Q210.1,401.2 210.0,417.5 Q210.4,433.8 210.0,450.0" stroke-width="3"></path>
<path d="M80,385 Q96.2,385.6 112.5,385.0 Q128.8,384.5 145.0,385.0 Q161.2,385.3 177.5,385.0 Q193.8,384.5 210.0,385.0 Q226.2,384.8 242.5,385.0 Q258.8,385.0 275.0,385.0 Q291.2,385.4 307.5,385.0 Q323.8,384.3 340.0,385.0" stroke-width="1.3"></path>
<path d="M275,190 Q274.9,206.2 275.0,222.5 Q275.4,238.8 275.0,255.0 Q275.1,271.2 275.0,287.5 Q275.2,303.8 275.0,320.0 Q274.6,336.2 275.0,352.5 Q275.5,368.8 275.0,385.0 Q274.9,401.2 275.0,417.5 Q275.3,433.8 275.0,450.0" stroke-width="1.3"></path>
<text x="112.5" y="234.2" font-family="Kalam, cursive" font-size="35.75" font-weight="700" text-anchor="middle" direction="ltr" fill="#2d2d2d" stroke="none">4</text>
<text x="177.5" y="234.2" font-family="Kalam, cursive" font-size="35.75" font-weight="400" text-anchor="middle" direction="ltr" fill="#2a78d6" stroke="none">1</text>
<text x="242.5" y="234.2" font-family="Kalam, cursive" font-size="35.75" font-weight="400" text-anchor="middle" direction="ltr" fill="#2a78d6" stroke="none">2</text>
<text x="307.5" y="234.2" font-family="Kalam, cursive" font-size="35.75" font-weight="400" text-anchor="middle" direction="ltr" fill="#2a78d6" stroke="none">3</text>
<text x="112.5" y="299.2" font-family="Kalam, cursive" font-size="35.75" font-weight="700" text-anchor="middle" direction="ltr" fill="#2d2d2d" stroke="none">2</text>
<text x="177.5" y="299.2" font-family="Kalam, cursive" font-size="35.75" font-weight="400" text-anchor="middle" direction="ltr" fill="#2a78d6" stroke="none">3</text>
<text x="242.5" y="299.2" font-family="Kalam, cursive" font-size="35.75" font-weight="400" text-anchor="middle" direction="ltr" fill="#2a78d6" stroke="none">4</text>
<text x="307.5" y="299.2" font-family="Kalam, cursive" font-size="35.75" font-weight="700" text-anchor="middle" direction="ltr" fill="#2d2d2d" stroke="none">1</text>
<text x="112.5" y="364.2" font-family="Kalam, cursive" font-size="35.75" font-weight="700" text-anchor="middle" direction="ltr" fill="#2d2d2d" stroke="none">1</text>
<text x="177.5" y="364.2" font-family="Kalam, cursive" font-size="35.75" font-weight="700" text-anchor="middle" direction="ltr" fill="#2d2d2d" stroke="none">2</text>
<text x="242.5" y="364.2" font-family="Kalam, cursive" font-size="35.75" font-weight="400" text-anchor="middle" direction="ltr" fill="#2a78d6" stroke="none">3</text>
<text x="307.5" y="364.2" font-family="Kalam, cursive" font-size="35.75" font-weight="700" text-anchor="middle" direction="ltr" fill="#2d2d2d" stroke="none">4</text>
<text x="112.5" y="429.2" font-family="Kalam, cursive" font-size="35.75" font-weight="400" text-anchor="middle" direction="ltr" fill="#2a78d6" stroke="none">3</text>
<text x="177.5" y="429.2" font-family="Kalam, cursive" font-size="35.75" font-weight="700" text-anchor="middle" direction="ltr" fill="#2d2d2d" stroke="none">4</text>
<text x="242.5" y="429.2" font-family="Kalam, cursive" font-size="35.75" font-weight="700" text-anchor="middle" direction="ltr" fill="#2d2d2d" stroke="none">1</text>
<text x="307.5" y="429.2" font-family="Kalam, cursive" font-size="35.75" font-weight="400" text-anchor="middle" direction="ltr" fill="#2a78d6" stroke="none">2</text>
<path d="M460,255 Q476.2,255.0 492.5,255.0 Q508.8,254.6 525.0,255.0 Q541.2,255.3 557.5,255.0 Q573.8,254.9 590.0,255.0 Q606.2,254.7 622.5,255.0 Q638.8,255.0 655.0,255.0 Q671.2,255.6 687.5,255.0 Q703.8,255.6 720.0,255.0" stroke-width="1.3"></path>
<path d="M525,190 Q524.8,206.2 525.0,222.5 Q524.3,238.8 525.0,255.0 Q525.7,271.2 525.0,287.5 Q524.6,303.8 525.0,320.0 Q525.3,336.2 525.0,352.5 Q524.9,368.8 525.0,385.0 Q524.4,401.2 525.0,417.5 Q524.4,433.8 525.0,450.0" stroke-width="1.3"></path>
<path d="M460,320 Q476.2,319.7 492.5,320.0 Q508.8,319.7 525.0,320.0 Q541.2,319.5 557.5,320.0 Q573.8,320.0 590.0,320.0 Q606.2,320.1 622.5,320.0 Q638.8,320.4 655.0,320.0 Q671.2,320.3 687.5,320.0 Q703.8,320.4 720.0,320.0" stroke-width="3"></path>
<path d="M590,190 Q589.9,206.2 590.0,222.5 Q590.5,238.8 590.0,255.0 Q589.8,271.2 590.0,287.5 Q590.7,303.8 590.0,320.0 Q590.1,336.2 590.0,352.5 Q590.2,368.8 590.0,385.0 Q590.0,401.2 590.0,417.5 Q590.4,433.8 590.0,450.0" stroke-width="3"></path>
<path d="M460,385 Q476.2,385.0 492.5,385.0 Q508.8,384.6 525.0,385.0 Q541.2,385.1 557.5,385.0 Q573.8,384.4 590.0,385.0 Q606.2,385.3 622.5,385.0 Q638.8,385.2 655.0,385.0 Q671.2,385.3 687.5,385.0 Q703.8,385.4 720.0,385.0" stroke-width="1.3"></path>
<path d="M655,190 Q655.6,206.2 655.0,222.5 Q655.7,238.8 655.0,255.0 Q655.4,271.2 655.0,287.5 Q655.0,303.8 655.0,320.0 Q655.6,336.2 655.0,352.5 Q655.1,368.8 655.0,385.0 Q655.0,401.2 655.0,417.5 Q655.3,433.8 655.0,450.0" stroke-width="1.3"></path>
<text x="492.5" y="234.2" font-family="Kalam, cursive" font-size="35.75" font-weight="400" text-anchor="middle" direction="ltr" fill="#2a78d6" stroke="none">2</text>
<text x="557.5" y="234.2" font-family="Kalam, cursive" font-size="35.75" font-weight="400" text-anchor="middle" direction="ltr" fill="#2a78d6" stroke="none">4</text>
<text x="622.5" y="234.2" font-family="Kalam, cursive" font-size="35.75" font-weight="400" text-anchor="middle" direction="ltr" fill="#2a78d6" stroke="none">3</text>
<text x="687.5" y="234.2" font-family="Kalam, cursive" font-size="35.75" font-weight="700" text-anchor="middle" direction="ltr" fill="#2d2d2d" stroke="none">1</text>
<text x="492.5" y="299.2" font-family="Kalam, cursive" font-size="35.75" font-weight="400" text-anchor="middle" direction="ltr" fill="#2a78d6" stroke="none">3</text>
<text x="557.5" y="299.2" font-family="Kalam, cursive" font-size="35.75" font-weight="700" text-anchor="middle" direction="ltr" fill="#2d2d2d" stroke="none">1</text>
<text x="622.5" y="299.2" font-family="Kalam, cursive" font-size="35.75" font-weight="400" text-anchor="middle" direction="ltr" fill="#2a78d6" stroke="none">4</text>
<text x="687.5" y="299.2" font-family="Kalam, cursive" font-size="35.75" font-weight="700" text-anchor="middle" direction="ltr" fill="#2d2d2d" stroke="none">2</text>
<text x="492.5" y="364.2" font-family="Kalam, cursive" font-size="35.75" font-weight="700" text-anchor="middle" direction="ltr" fill="#2d2d2d" stroke="none">1</text>
<text x="557.5" y="364.2" font-family="Kalam, cursive" font-size="35.75" font-weight="700" text-anchor="middle" direction="ltr" fill="#2d2d2d" stroke="none">3</text>
<text x="622.5" y="364.2" font-family="Kalam, cursive" font-size="35.75" font-weight="400" text-anchor="middle" direction="ltr" fill="#2a78d6" stroke="none">2</text>
<text x="687.5" y="364.2" font-family="Kalam, cursive" font-size="35.75" font-weight="400" text-anchor="middle" direction="ltr" fill="#2a78d6" stroke="none">4</text>
<text x="492.5" y="429.2" font-family="Kalam, cursive" font-size="35.75" font-weight="700" text-anchor="middle" direction="ltr" fill="#2d2d2d" stroke="none">4</text>
<text x="557.5" y="429.2" font-family="Kalam, cursive" font-size="35.75" font-weight="400" text-anchor="middle" direction="ltr" fill="#2a78d6" stroke="none">2</text>
<text x="622.5" y="429.2" font-family="Kalam, cursive" font-size="35.75" font-weight="700" text-anchor="middle" direction="ltr" fill="#2d2d2d" stroke="none">1</text>
<text x="687.5" y="429.2" font-family="Kalam, cursive" font-size="35.75" font-weight="400" text-anchor="middle" direction="ltr" fill="#2a78d6" stroke="none">3</text>
<path d="M30,640 Q52.5,639.8 75.0,640.0 Q97.5,639.8 120.0,640.0 Q142.5,640.3 165.0,640.0 Q187.5,640.3 210.0,640.0 Q232.5,640.7 255.0,640.0 Q277.5,639.4 300.0,640.0 Q322.5,640.6 345.0,640.0 Q367.5,639.3 390.0,640.0" stroke-width="1.3"></path>
<path d="M90,580 Q90.2,602.5 90.0,625.0 Q90.3,647.5 90.0,670.0 Q89.7,692.5 90.0,715.0 Q89.3,737.5 90.0,760.0 Q90.5,782.5 90.0,805.0 Q89.6,827.5 90.0,850.0 Q90.0,872.5 90.0,895.0 Q89.5,917.5 90.0,940.0" stroke-width="1.3"></path>
<path d="M30,700 Q52.5,700.6 75.0,700.0 Q97.5,699.6 120.0,700.0 Q142.5,699.4 165.0,700.0 Q187.5,699.7 210.0,700.0 Q232.5,700.6 255.0,700.0 Q277.5,699.4 300.0,700.0 Q322.5,700.5 345.0,700.0 Q367.5,699.5 390.0,700.0" stroke-width="3"></path>
<path d="M150,580 Q150.3,602.5 150.0,625.0 Q149.9,647.5 150.0,670.0 Q150.5,692.5 150.0,715.0 Q149.5,737.5 150.0,760.0 Q149.4,782.5 150.0,805.0 Q149.5,827.5 150.0,850.0 Q149.3,872.5 150.0,895.0 Q149.6,917.5 150.0,940.0" stroke-width="1.3"></path>
<path d="M30,760 Q52.5,759.4 75.0,760.0 Q97.5,760.3 120.0,760.0 Q142.5,759.4 165.0,760.0 Q187.5,759.9 210.0,760.0 Q232.5,760.0 255.0,760.0 Q277.5,760.5 300.0,760.0 Q322.5,759.7 345.0,760.0 Q367.5,759.8 390.0,760.0" stroke-width="1.3"></path>
<path d="M210,580 Q209.9,602.5 210.0,625.0 Q210.5,647.5 210.0,670.0 Q209.5,692.5 210.0,715.0 Q210.3,737.5 210.0,760.0 Q209.8,782.5 210.0,805.0 Q209.8,827.5 210.0,850.0 Q210.1,872.5 210.0,895.0 Q209.5,917.5 210.0,940.0" stroke-width="3"></path>
<path d="M30,820 Q52.5,819.8 75.0,820.0 Q97.5,820.1 120.0,820.0 Q142.5,820.2 165.0,820.0 Q187.5,820.6 210.0,820.0 Q232.5,819.5 255.0,820.0 Q277.5,819.9 300.0,820.0 Q322.5,819.5 345.0,820.0 Q367.5,819.8 390.0,820.0" stroke-width="3"></path>
<path d="M270,580 Q269.9,602.5 270.0,625.0 Q270.7,647.5 270.0,670.0 Q270.4,692.5 270.0,715.0 Q270.2,737.5 270.0,760.0 Q270.7,782.5 270.0,805.0 Q270.5,827.5 270.0,850.0 Q269.8,872.5 270.0,895.0 Q269.8,917.5 270.0,940.0" stroke-width="1.3"></path>
<path d="M30,880 Q52.5,880.6 75.0,880.0 Q97.5,880.0 120.0,880.0 Q142.5,880.3 165.0,880.0 Q187.5,880.3 210.0,880.0 Q232.5,879.7 255.0,880.0 Q277.5,880.6 300.0,880.0 Q322.5,879.5 345.0,880.0 Q367.5,879.6 390.0,880.0" stroke-width="1.3"></path>
<path d="M330,580 Q329.7,602.5 330.0,625.0 Q330.6,647.5 330.0,670.0 Q330.1,692.5 330.0,715.0 Q330.1,737.5 330.0,760.0 Q329.8,782.5 330.0,805.0 Q330.0,827.5 330.0,850.0 Q330.0,872.5 330.0,895.0 Q330.5,917.5 330.0,940.0" stroke-width="1.3"></path>
<text x="60" y="620.8" font-family="Kalam, cursive" font-size="33" font-weight="400" text-anchor="middle" direction="ltr" fill="#2a78d6" stroke="none">6</text>
<text x="120" y="620.8" font-family="Kalam, cursive" font-size="33" font-weight="400" text-anchor="middle" direction="ltr" fill="#2a78d6" stroke="none">3</text>
<text x="180" y="620.8" font-family="Kalam, cursive" font-size="33" font-weight="700" text-anchor="middle" direction="ltr" fill="#2d2d2d" stroke="none">5</text>
<text x="240" y="620.8" font-family="Kalam, cursive" font-size="33" font-weight="400" text-anchor="middle" direction="ltr" fill="#2a78d6" stroke="none">1</text>
<text x="300" y="620.8" font-family="Kalam, cursive" font-size="33" font-weight="400" text-anchor="middle" direction="ltr" fill="#2a78d6" stroke="none">2</text>
<text x="360" y="620.8" font-family="Kalam, cursive" font-size="33" font-weight="700" text-anchor="middle" direction="ltr" fill="#2d2d2d" stroke="none">4</text>
<text x="60" y="680.8" font-family="Kalam, cursive" font-size="33" font-weight="400" text-anchor="middle" direction="ltr" fill="#2a78d6" stroke="none">1</text>
<text x="120" y="680.8" font-family="Kalam, cursive" font-size="33" font-weight="400" text-anchor="middle" direction="ltr" fill="#2a78d6" stroke="none">4</text>
<text x="180" y="680.8" font-family="Kalam, cursive" font-size="33" font-weight="700" text-anchor="middle" direction="ltr" fill="#2d2d2d" stroke="none">2</text>
<text x="240" y="680.8" font-family="Kalam, cursive" font-size="33" font-weight="400" text-anchor="middle" direction="ltr" fill="#2a78d6" stroke="none">3</text>
<text x="300" y="680.8" font-family="Kalam, cursive" font-size="33" font-weight="400" text-anchor="middle" direction="ltr" fill="#2a78d6" stroke="none">5</text>
<text x="360" y="680.8" font-family="Kalam, cursive" font-size="33" font-weight="400" text-anchor="middle" direction="ltr" fill="#2a78d6" stroke="none">6</text>
<text x="60" y="740.8" font-family="Kalam, cursive" font-size="33" font-weight="700" text-anchor="middle" direction="ltr" fill="#2d2d2d" stroke="none">3</text>
<text x="120" y="740.8" font-family="Kalam, cursive" font-size="33" font-weight="400" text-anchor="middle" direction="ltr" fill="#2a78d6" stroke="none">2</text>
<text x="180" y="740.8" font-family="Kalam, cursive" font-size="33" font-weight="700" text-anchor="middle" direction="ltr" fill="#2d2d2d" stroke="none">4</text>
<text x="240" y="740.8" font-family="Kalam, cursive" font-size="33" font-weight="400" text-anchor="middle" direction="ltr" fill="#2a78d6" stroke="none">6</text>
<text x="300" y="740.8" font-family="Kalam, cursive" font-size="33" font-weight="400" text-anchor="middle" direction="ltr" fill="#2a78d6" stroke="none">1</text>
<text x="360" y="740.8" font-family="Kalam, cursive" font-size="33" font-weight="700" text-anchor="middle" direction="ltr" fill="#2d2d2d" stroke="none">5</text>
<text x="60" y="800.8" font-family="Kalam, cursive" font-size="33" font-weight="700" text-anchor="middle" direction="ltr" fill="#2d2d2d" stroke="none">5</text>
<text x="120" y="800.8" font-family="Kalam, cursive" font-size="33" font-weight="700" text-anchor="middle" direction="ltr" fill="#2d2d2d" stroke="none">6</text>
<text x="180" y="800.8" font-family="Kalam, cursive" font-size="33" font-weight="400" text-anchor="middle" direction="ltr" fill="#2a78d6" stroke="none">1</text>
<text x="240" y="800.8" font-family="Kalam, cursive" font-size="33" font-weight="400" text-anchor="middle" direction="ltr" fill="#2a78d6" stroke="none">4</text>
<text x="300" y="800.8" font-family="Kalam, cursive" font-size="33" font-weight="700" text-anchor="middle" direction="ltr" fill="#2d2d2d" stroke="none">3</text>
<text x="360" y="800.8" font-family="Kalam, cursive" font-size="33" font-weight="700" text-anchor="middle" direction="ltr" fill="#2d2d2d" stroke="none">2</text>
<text x="60" y="860.8" font-family="Kalam, cursive" font-size="33" font-weight="700" text-anchor="middle" direction="ltr" fill="#2d2d2d" stroke="none">4</text>
<text x="120" y="860.8" font-family="Kalam, cursive" font-size="33" font-weight="700" text-anchor="middle" direction="ltr" fill="#2d2d2d" stroke="none">5</text>
<text x="180" y="860.8" font-family="Kalam, cursive" font-size="33" font-weight="400" text-anchor="middle" direction="ltr" fill="#2a78d6" stroke="none">3</text>
<text x="240" y="860.8" font-family="Kalam, cursive" font-size="33" font-weight="400" text-anchor="middle" direction="ltr" fill="#2a78d6" stroke="none">2</text>
<text x="300" y="860.8" font-family="Kalam, cursive" font-size="33" font-weight="700" text-anchor="middle" direction="ltr" fill="#2d2d2d" stroke="none">6</text>
<text x="360" y="860.8" font-family="Kalam, cursive" font-size="33" font-weight="700" text-anchor="middle" direction="ltr" fill="#2d2d2d" stroke="none">1</text>
<text x="60" y="920.8" font-family="Kalam, cursive" font-size="33" font-weight="400" text-anchor="middle" direction="ltr" fill="#2a78d6" stroke="none">2</text>
<text x="120" y="920.8" font-family="Kalam, cursive" font-size="33" font-weight="700" text-anchor="middle" direction="ltr" fill="#2d2d2d" stroke="none">1</text>
<text x="180" y="920.8" font-family="Kalam, cursive" font-size="33" font-weight="400" text-anchor="middle" direction="ltr" fill="#2a78d6" stroke="none">6</text>
<text x="240" y="920.8" font-family="Kalam, cursive" font-size="33" font-weight="400" text-anchor="middle" direction="ltr" fill="#2a78d6" stroke="none">5</text>
<text x="300" y="920.8" font-family="Kalam, cursive" font-size="33" font-weight="700" text-anchor="middle" direction="ltr" fill="#2d2d2d" stroke="none">4</text>
<text x="360" y="920.8" font-family="Kalam, cursive" font-size="33" font-weight="400" text-anchor="middle" direction="ltr" fill="#2a78d6" stroke="none">3</text>
<path d="M410,640 Q432.5,640.0 455.0,640.0 Q477.5,640.1 500.0,640.0 Q522.5,640.4 545.0,640.0 Q567.5,639.8 590.0,640.0 Q612.5,639.3 635.0,640.0 Q657.5,640.7 680.0,640.0 Q702.5,640.6 725.0,640.0 Q747.5,640.2 770.0,640.0" stroke-width="1.3"></path>
<path d="M470,580 Q470.6,602.5 470.0,625.0 Q469.4,647.5 470.0,670.0 Q470.0,692.5 470.0,715.0 Q469.5,737.5 470.0,760.0 Q469.7,782.5 470.0,805.0 Q469.8,827.5 470.0,850.0 Q469.9,872.5 470.0,895.0 Q470.4,917.5 470.0,940.0" stroke-width="1.3"></path>
<path d="M410,700 Q432.5,699.8 455.0,700.0 Q477.5,699.5 500.0,700.0 Q522.5,699.6 545.0,700.0 Q567.5,700.4 590.0,700.0 Q612.5,700.7 635.0,700.0 Q657.5,700.1 680.0,700.0 Q702.5,699.5 725.0,700.0 Q747.5,700.1 770.0,700.0" stroke-width="3"></path>
<path d="M530,580 Q530.7,602.5 530.0,625.0 Q530.2,647.5 530.0,670.0 Q530.3,692.5 530.0,715.0 Q529.8,737.5 530.0,760.0 Q529.4,782.5 530.0,805.0 Q530.1,827.5 530.0,850.0 Q530.5,872.5 530.0,895.0 Q529.7,917.5 530.0,940.0" stroke-width="1.3"></path>
<path d="M410,760 Q432.5,759.5 455.0,760.0 Q477.5,760.0 500.0,760.0 Q522.5,760.0 545.0,760.0 Q567.5,759.9 590.0,760.0 Q612.5,759.6 635.0,760.0 Q657.5,759.8 680.0,760.0 Q702.5,759.4 725.0,760.0 Q747.5,759.6 770.0,760.0" stroke-width="1.3"></path>
<path d="M590,580 Q590.6,602.5 590.0,625.0 Q590.1,647.5 590.0,670.0 Q589.5,692.5 590.0,715.0 Q590.1,737.5 590.0,760.0 Q590.3,782.5 590.0,805.0 Q590.0,827.5 590.0,850.0 Q590.2,872.5 590.0,895.0 Q589.4,917.5 590.0,940.0" stroke-width="3"></path>
<path d="M410,820 Q432.5,819.9 455.0,820.0 Q477.5,819.4 500.0,820.0 Q522.5,819.9 545.0,820.0 Q567.5,820.0 590.0,820.0 Q612.5,819.6 635.0,820.0 Q657.5,820.2 680.0,820.0 Q702.5,820.4 725.0,820.0 Q747.5,820.6 770.0,820.0" stroke-width="3"></path>
<path d="M650,580 Q649.3,602.5 650.0,625.0 Q649.7,647.5 650.0,670.0 Q650.4,692.5 650.0,715.0 Q649.9,737.5 650.0,760.0 Q649.4,782.5 650.0,805.0 Q650.0,827.5 650.0,850.0 Q650.6,872.5 650.0,895.0 Q649.9,917.5 650.0,940.0" stroke-width="1.3"></path>
<path d="M410,880 Q432.5,879.6 455.0,880.0 Q477.5,880.5 500.0,880.0 Q522.5,879.7 545.0,880.0 Q567.5,879.4 590.0,880.0 Q612.5,879.9 635.0,880.0 Q657.5,879.8 680.0,880.0 Q702.5,880.4 725.0,880.0 Q747.5,880.5 770.0,880.0" stroke-width="1.3"></path>
<path d="M710,580 Q710.4,602.5 710.0,625.0 Q709.6,647.5 710.0,670.0 Q709.7,692.5 710.0,715.0 Q709.6,737.5 710.0,760.0 Q710.1,782.5 710.0,805.0 Q709.7,827.5 710.0,850.0 Q710.1,872.5 710.0,895.0 Q709.3,917.5 710.0,940.0" stroke-width="1.3"></path>
<text x="440" y="620.8" font-family="Kalam, cursive" font-size="33" font-weight="400" text-anchor="middle" direction="ltr" fill="#2a78d6" stroke="none">3</text>
<text x="500" y="620.8" font-family="Kalam, cursive" font-size="33" font-weight="400" text-anchor="middle" direction="ltr" fill="#2a78d6" stroke="none">6</text>
<text x="560" y="620.8" font-family="Kalam, cursive" font-size="33" font-weight="400" text-anchor="middle" direction="ltr" fill="#2a78d6" stroke="none">5</text>
<text x="620" y="620.8" font-family="Kalam, cursive" font-size="33" font-weight="400" text-anchor="middle" direction="ltr" fill="#2a78d6" stroke="none">1</text>
<text x="680" y="620.8" font-family="Kalam, cursive" font-size="33" font-weight="700" text-anchor="middle" direction="ltr" fill="#2d2d2d" stroke="none">4</text>
<text x="740" y="620.8" font-family="Kalam, cursive" font-size="33" font-weight="400" text-anchor="middle" direction="ltr" fill="#2a78d6" stroke="none">2</text>
<text x="440" y="680.8" font-family="Kalam, cursive" font-size="33" font-weight="400" text-anchor="middle" direction="ltr" fill="#2a78d6" stroke="none">1</text>
<text x="500" y="680.8" font-family="Kalam, cursive" font-size="33" font-weight="700" text-anchor="middle" direction="ltr" fill="#2d2d2d" stroke="none">2</text>
<text x="560" y="680.8" font-family="Kalam, cursive" font-size="33" font-weight="700" text-anchor="middle" direction="ltr" fill="#2d2d2d" stroke="none">4</text>
<text x="620" y="680.8" font-family="Kalam, cursive" font-size="33" font-weight="700" text-anchor="middle" direction="ltr" fill="#2d2d2d" stroke="none">6</text>
<text x="680" y="680.8" font-family="Kalam, cursive" font-size="33" font-weight="400" text-anchor="middle" direction="ltr" fill="#2a78d6" stroke="none">3</text>
<text x="740" y="680.8" font-family="Kalam, cursive" font-size="33" font-weight="700" text-anchor="middle" direction="ltr" fill="#2d2d2d" stroke="none">5</text>
<text x="440" y="740.8" font-family="Kalam, cursive" font-size="33" font-weight="400" text-anchor="middle" direction="ltr" fill="#2a78d6" stroke="none">6</text>
<text x="500" y="740.8" font-family="Kalam, cursive" font-size="33" font-weight="700" text-anchor="middle" direction="ltr" fill="#2d2d2d" stroke="none">1</text>
<text x="560" y="740.8" font-family="Kalam, cursive" font-size="33" font-weight="400" text-anchor="middle" direction="ltr" fill="#2a78d6" stroke="none">2</text>
<text x="620" y="740.8" font-family="Kalam, cursive" font-size="33" font-weight="400" text-anchor="middle" direction="ltr" fill="#2a78d6" stroke="none">3</text>
<text x="680" y="740.8" font-family="Kalam, cursive" font-size="33" font-weight="400" text-anchor="middle" direction="ltr" fill="#2a78d6" stroke="none">5</text>
<text x="740" y="740.8" font-family="Kalam, cursive" font-size="33" font-weight="400" text-anchor="middle" direction="ltr" fill="#2a78d6" stroke="none">4</text>
<text x="440" y="800.8" font-family="Kalam, cursive" font-size="33" font-weight="400" text-anchor="middle" direction="ltr" fill="#2a78d6" stroke="none">5</text>
<text x="500" y="800.8" font-family="Kalam, cursive" font-size="33" font-weight="400" text-anchor="middle" direction="ltr" fill="#2a78d6" stroke="none">4</text>
<text x="560" y="800.8" font-family="Kalam, cursive" font-size="33" font-weight="700" text-anchor="middle" direction="ltr" fill="#2d2d2d" stroke="none">3</text>
<text x="620" y="800.8" font-family="Kalam, cursive" font-size="33" font-weight="700" text-anchor="middle" direction="ltr" fill="#2d2d2d" stroke="none">2</text>
<text x="680" y="800.8" font-family="Kalam, cursive" font-size="33" font-weight="700" text-anchor="middle" direction="ltr" fill="#2d2d2d" stroke="none">6</text>
<text x="740" y="800.8" font-family="Kalam, cursive" font-size="33" font-weight="400" text-anchor="middle" direction="ltr" fill="#2a78d6" stroke="none">1</text>
<text x="440" y="860.8" font-family="Kalam, cursive" font-size="33" font-weight="700" text-anchor="middle" direction="ltr" fill="#2d2d2d" stroke="none">2</text>
<text x="500" y="860.8" font-family="Kalam, cursive" font-size="33" font-weight="700" text-anchor="middle" direction="ltr" fill="#2d2d2d" stroke="none">5</text>
<text x="560" y="860.8" font-family="Kalam, cursive" font-size="33" font-weight="400" text-anchor="middle" direction="ltr" fill="#2a78d6" stroke="none">6</text>
<text x="620" y="860.8" font-family="Kalam, cursive" font-size="33" font-weight="400" text-anchor="middle" direction="ltr" fill="#2a78d6" stroke="none">4</text>
<text x="680" y="860.8" font-family="Kalam, cursive" font-size="33" font-weight="400" text-anchor="middle" direction="ltr" fill="#2a78d6" stroke="none">1</text>
<text x="740" y="860.8" font-family="Kalam, cursive" font-size="33" font-weight="700" text-anchor="middle" direction="ltr" fill="#2d2d2d" stroke="none">3</text>
<text x="440" y="920.8" font-family="Kalam, cursive" font-size="33" font-weight="700" text-anchor="middle" direction="ltr" fill="#2d2d2d" stroke="none">4</text>
<text x="500" y="920.8" font-family="Kalam, cursive" font-size="33" font-weight="700" text-anchor="middle" direction="ltr" fill="#2d2d2d" stroke="none">3</text>
<text x="560" y="920.8" font-family="Kalam, cursive" font-size="33" font-weight="400" text-anchor="middle" direction="ltr" fill="#2a78d6" stroke="none">1</text>
<text x="620" y="920.8" font-family="Kalam, cursive" font-size="33" font-weight="400" text-anchor="middle" direction="ltr" fill="#2a78d6" stroke="none">5</text>
<text x="680" y="920.8" font-family="Kalam, cursive" font-size="33" font-weight="700" text-anchor="middle" direction="ltr" fill="#2d2d2d" stroke="none">2</text>
<text x="740" y="920.8" font-family="Kalam, cursive" font-size="33" font-weight="400" text-anchor="middle" direction="ltr" fill="#2a78d6" stroke="none">6</text></svg>