<svg xmlns="http://www.w3.org/2000/svg" viewBox="0 0 1152 1728"><path fill="#000" fill-rule="evenodd" d="M549,1608C527,1604 510,1585 473,1518C381,1354 274,1118 189,892C122,715 55,509 27,398C14,349 15,346 35,326C82,281 165,230 249,197C450,116 673,107 877,170C972,199 1059,243 1120,294C1133,305 1140,312 1143,318C1147,326 1145,343 1129,406C1109,479 1083,563 1046,673C949,954 804,1265 664,1490C647,1518 621,1556 610,1571C588,1601 571,1611 549,1608ZM571,1590C582,1585 595,1570 620,1533C719,1385 843,1145 935,922C986,798 1035,663 1070,553L1076,532L1071,524C1063,510 1055,499 1044,487C1026,470 1012,461 982,450C952,438 945,434 914,411C884,387 865,380 821,375C789,371 781,369 762,361C725,345 714,343 670,346C637,348 627,347 601,341C571,334 552,333 530,335C511,337 500,340 467,353C435,364 427,366 395,368C327,373 302,382 256,417C225,439 217,444 178,458C141,471 114,493 91,529L84,539L89,554C94,572 118,645 127,672C137,703 161,772 169,794C172,801 177,815 180,824C225,948 283,1091 332,1199C359,1261 369,1281 387,1320C439,1427 496,1533 519,1566C536,1592 553,1599 571,1590ZM543,1304C514,1297 503,1258 520,1220C540,1178 573,1179 587,1224C599,1260 586,1297 560,1303C553,1305 548,1305 543,1304ZM562,1290C574,1284 581,1267 580,1247C578,1219 565,1198 552,1202C542,1205 529,1223 525,1241C523,1251 524,1267 527,1274C529,1281 538,1290 543,1292C548,1293 557,1293 562,1290ZM739,1181C715,1176 702,1146 711,1114C724,1066 760,1053 777,1090C791,1119 789,1152 773,1169C763,1180 752,1184 739,1181ZM754,1168C768,1164 776,1147 775,1124C774,1109 767,1092 759,1085C747,1074 731,1087 723,1114C720,1124 719,1143 722,1151C725,1159 732,1166 739,1168C746,1170 747,1170 754,1168ZM362,1138C344,1133 334,1115 334,1090C334,1075 336,1066 343,1052C355,1026 377,1019 393,1036C411,1055 417,1095 405,1118C396,1135 378,1144 362,1138ZM382,1126C398,1118 405,1091 396,1064C389,1044 378,1035 367,1040C360,1044 351,1058 347,1072C344,1082 345,1101 348,1109C354,1125 368,1132 382,1126ZM566,1049C517,1044 483,1009 467,950C464,938 461,919 461,911C461,906 460,906 456,912C452,916 449,917 447,915C444,911 450,900 459,893C465,889 474,887 477,889C480,890 480,895 477,896C474,898 475,899 483,905C508,921 541,930 578,930C609,930 634,925 658,913C673,906 673,906 669,903C666,899 667,897 673,896C684,895 699,909 698,920C698,923 697,924 695,924C693,924 692,923 690,920C687,916 685,916 685,920C685,925 680,947 676,959C657,1013 621,1047 577,1049C573,1050 568,1050 566,1049ZM590,1035C598,1034 607,1030 615,1024C623,1019 630,1013 630,1012C630,1009 616,997 609,994C597,987 589,986 572,986C550,986 533,992 519,1005L512,1011L515,1014C519,1018 531,1026 538,1029C553,1037 572,1039 590,1035ZM641,1001C647,994 657,976 663,961C667,949 674,922 673,920C672,920 668,922 662,924C618,946 559,948 510,931C500,928 486,921 479,916C473,913 473,913 473,920C476,946 487,977 500,996C504,1003 506,1003 509,1000C511,996 520,989 527,985C561,966 610,972 632,997C638,1004 638,1004 641,1001ZM715,877C686,870 664,848 653,816C644,786 645,749 657,721C687,652 764,641 800,700C818,729 822,770 811,806C801,839 778,865 751,874C741,878 725,879 715,877ZM749,864C774,854 794,830 802,798C816,744 793,688 752,676C717,665 679,689 664,733C657,754 655,780 660,802C668,834 687,857 714,865C722,868 740,867 749,864ZM414,862C382,854 356,822 349,781C347,770 347,747 349,735C360,677 406,641 453,654C477,661 496,681 506,711C516,738 516,774 506,801C490,847 453,872 414,862ZM445,851C459,848 474,837 483,824C517,777 507,700 465,673C454,665 448,664 434,664C415,664 403,668 389,681C348,718 348,798 388,835C404,850 426,857 445,851ZM723,840C688,827 681,766 710,736C720,727 728,724 739,724C747,724 749,724 754,726C787,741 791,800 762,829C752,840 736,845 723,840ZM437,828C394,814 392,735 435,714C442,711 443,711 451,711C469,711 482,721 489,743C492,752 492,753 492,767C492,780 492,782 490,790C481,820 459,835 437,828ZM916,782C905,780 897,773 891,762L888,755L888,741C888,729 888,727 890,721C903,686 929,666 949,675C960,681 967,697 967,720C967,758 943,788 916,782ZM937,766C943,762 949,752 952,744C958,724 956,698 946,688C938,680 923,687 911,704C894,730 894,758 912,767C916,770 917,770 924,770C931,770 932,769 937,766ZM221,759C200,754 187,730 187,700C187,661 206,641 231,654C246,662 261,684 266,704C267,710 267,726 266,732C260,752 240,765 221,759ZM238,747C251,743 259,725 254,706C252,696 244,681 237,674C216,651 198,663 199,700C199,712 199,714 201,721C205,732 208,737 214,742C221,749 228,750 238,747ZM792,630C781,619 774,614 764,609C750,603 734,601 717,605C707,607 705,606 704,601C704,596 713,588 726,585C733,583 749,582 757,585C774,589 791,601 800,615C804,621 808,631 808,634C808,636 805,640 803,640C802,640 797,635 792,630ZM366,624C364,621 365,619 368,613C380,587 416,568 444,574C459,578 470,585 470,592C470,597 467,598 456,595C449,593 446,593 436,593C413,594 396,602 379,619C372,627 368,628 366,624ZM819,545C803,541 793,527 791,508C789,484 810,448 831,438C839,434 850,434 856,439C868,447 875,465 874,488C872,528 847,553 819,545ZM323,545C312,541 303,532 297,520C291,508 290,501 289,487C288,450 306,428 330,436C344,442 360,460 367,482C370,490 370,491 370,504C370,516 370,517 367,523C361,537 349,545 335,546C330,546 326,545 323,545ZM840,532C845,529 853,521 856,514C868,487 860,447 843,447C825,447 801,483 803,508C805,529 823,541 840,532ZM345,531C354,525 359,516 359,503C359,494 358,489 353,478C341,454 324,442 312,449C299,457 297,494 307,515C316,532 332,538 345,531ZM82,516C92,501 113,479 128,468C145,456 157,450 182,441C208,432 221,425 246,407C274,386 293,375 317,367C339,360 357,357 401,354C426,352 432,351 476,335C522,318 553,316 604,327C631,334 642,334 678,331C708,328 731,332 759,345C785,356 793,358 823,362C869,367 895,377 928,403C950,420 961,427 988,437C1029,452 1055,473 1076,504C1078,508 1081,512 1082,512C1082,512 1084,508 1085,504C1091,483 1106,431 1106,429C1106,425 1071,394 1042,372C963,313 869,272 762,251C667,231 558,229 464,245C325,267 199,321 107,398C94,409 68,434 61,442L57,447L60,458C68,485 78,521 79,521C79,521 81,519 82,516ZM59,421C135,343 256,277 390,244C557,202 739,213 895,273C972,302 1041,345 1099,398C1106,404 1111,409 1112,409C1113,408 1126,352 1128,340C1130,327 1130,326 1121,318C1087,285 1017,242 959,217C799,149 624,129 450,157C314,180 181,234 84,306C53,330 34,348 34,356C34,360 40,388 47,412C49,420 51,427 51,428C51,429 53,427 59,421Z"/></svg>