<svg xmlns="http://www.w3.org/2000/svg" viewBox="0 0 1408 1408"><path fill="#000" fill-rule="evenodd" d="M517,1369C485,1366 455,1358 436,1347L429,1343L418,1345C402,1349 366,1349 349,1345C316,1339 286,1324 273,1307L269,1301L260,1301C229,1298 197,1280 187,1258C183,1251 183,1249 189,1236C201,1205 224,1160 253,1113C260,1103 266,1091 267,1089C268,1086 271,1079 274,1074C278,1069 280,1065 280,1064C280,1064 279,1062 277,1061C273,1058 272,1052 273,1045C273,1043 274,1041 273,1041C273,1040 263,1050 257,1058C247,1070 239,1073 233,1067C232,1065 230,1064 229,1064C224,1064 220,1059 220,1052C220,1049 219,1047 218,1045C216,1043 215,1041 215,1036C214,1018 225,1003 253,980C265,970 267,969 267,967C263,955 267,946 277,945C282,944 282,945 292,925L297,916L291,913L286,910L279,911C251,918 220,900 216,875C216,870 217,868 221,868C231,868 237,857 232,847C230,843 229,843 228,843C217,847 213,847 208,847C180,844 160,817 166,790C169,779 174,771 185,761C202,745 202,741 187,724C168,702 164,680 176,656C181,645 186,638 205,619C221,602 225,596 228,583C231,573 230,555 226,534C218,486 223,445 241,407C258,372 288,341 320,324C324,322 329,319 330,318L332,317L327,307C324,301 319,291 315,284L308,272L303,272C296,271 290,267 288,261C281,246 297,231 313,238C318,241 321,245 322,252L322,258L333,260C347,263 358,267 372,273C378,276 384,278 384,277C388,273 405,232 413,208L415,199L412,196C407,192 405,187 405,182C405,170 413,162 424,162C432,162 438,166 442,172C444,176 443,186 441,190L439,193L445,200C469,227 494,254 495,254C496,254 501,250 507,244C516,235 521,231 536,220L539,218L537,214C534,203 542,192 554,192C572,192 578,216 562,224C558,227 557,228 557,231C555,239 552,280 552,282C553,282 554,283 555,283C556,283 561,284 565,285C596,291 621,306 635,327C640,334 641,335 647,338C663,346 679,361 689,378C691,380 693,382 693,382C694,382 704,362 733,304L754,260L754,231L754,203L751,201C742,194 748,179 759,181C768,184 771,196 763,201C760,203 762,204 768,202C777,200 785,201 796,207C808,213 812,214 821,212C831,209 831,211 823,222C818,228 818,228 824,230C830,232 830,234 823,237C812,243 803,243 791,238C781,235 772,236 764,242C761,244 761,244 761,252L761,259L783,303C795,328 811,360 819,375C833,402 833,403 832,406C831,408 829,409 825,411C822,412 819,414 819,415C819,416 819,437 819,461L820,506L829,506C835,506 840,507 840,508C842,509 842,513 842,534C842,560 842,561 837,564L834,565L834,578L834,590L848,590C856,590 863,590 863,590C863,589 863,570 863,529L863,481L858,478C850,473 850,473 850,442C850,415 850,414 852,413C855,412 873,410 878,410L881,411L880,358C880,328 880,304 879,303C879,303 877,301 873,300C867,298 863,295 863,292C863,291 870,276 879,260C905,212 907,207 938,147L955,113L955,81L954,48L950,44C947,41 946,40 946,36C946,25 959,20 966,28C970,33 970,39 965,44C963,46 962,48 962,49C963,49 966,48 969,48C983,44 995,46 1007,54C1019,62 1029,63 1041,59C1044,58 1047,57 1047,58C1049,59 1045,67 1039,73L1035,78L1037,79C1038,80 1041,81 1044,82C1050,83 1049,85 1043,89C1031,97 1017,98 1000,91C987,86 975,87 965,95C962,97 962,97 962,105L962,112L980,148C1003,193 1025,233 1048,273C1059,293 1059,295 1045,300L1040,302L1039,356L1039,410L1044,409C1051,409 1068,411 1070,413C1072,414 1072,416 1072,442C1071,473 1072,472 1063,478L1059,481L1059,535L1060,589L1076,589C1091,590 1093,590 1095,591C1097,593 1097,594 1097,625L1098,658L1102,658L1108,658L1108,612C1108,586 1108,562 1107,557L1107,549L1097,550C1082,550 1083,552 1083,522C1083,503 1083,497 1084,496C1085,496 1090,495 1095,494L1104,492L1104,447C1104,397 1105,401 1098,398C1093,397 1089,393 1089,391C1089,390 1102,364 1117,332C1133,301 1150,266 1155,255L1165,235L1165,205L1165,175L1163,174C1156,171 1155,162 1160,157C1162,154 1163,154 1168,154C1173,154 1174,154 1176,157C1181,162 1180,170 1174,174C1170,176 1173,177 1179,175C1187,173 1198,174 1205,178C1220,187 1227,188 1237,185C1241,183 1243,183 1243,184C1245,185 1242,191 1237,196L1233,201L1236,202C1238,203 1241,204 1242,205L1246,206L1242,210C1233,217 1217,219 1204,214C1194,209 1183,210 1175,217C1172,219 1172,219 1172,227L1172,234L1188,267C1196,285 1213,318 1225,341C1237,363 1247,383 1248,385C1252,392 1250,395 1242,398C1239,399 1237,400 1236,400C1235,401 1234,491 1236,491C1236,492 1241,492 1247,493C1262,495 1261,493 1261,520C1261,545 1261,546 1255,549L1251,551L1251,594L1252,636L1260,637C1267,637 1268,638 1270,639C1272,642 1272,908 1270,910C1269,911 1228,911 1081,910C979,910 894,910 893,910C891,911 891,911 893,914C896,918 896,923 893,926C892,928 890,929 889,929C889,929 887,930 887,932C884,937 880,937 872,933C865,930 864,930 855,930C845,929 838,930 838,932C838,932 840,934 843,936C856,943 860,956 851,961C847,963 844,962 835,959C830,957 823,955 818,954C809,953 802,950 796,945L791,942L788,944C781,951 770,948 766,939C766,937 764,936 763,936C732,930 701,918 682,906C677,902 676,902 675,904C672,909 664,916 661,918C660,919 658,920 658,921C658,921 661,924 664,926C695,948 731,985 761,1025C799,1075 844,1156 873,1224C884,1251 885,1255 879,1264C866,1282 838,1297 810,1300L800,1301L794,1308C784,1319 777,1323 764,1329C739,1341 723,1344 690,1344C673,1344 666,1344 660,1343L653,1341L648,1344C623,1362 564,1373 517,1369ZM568,1362C598,1359 630,1349 646,1338L651,1335L660,1337C667,1338 675,1338 692,1338C712,1338 715,1338 726,1336C755,1330 776,1319 790,1303L797,1295L805,1295C825,1293 847,1285 863,1272C870,1267 877,1257 877,1253C877,1248 856,1200 855,1200C854,1200 853,1202 853,1205C851,1211 845,1221 841,1225C836,1230 826,1238 819,1240C807,1245 790,1245 778,1239C769,1236 769,1236 767,1241C755,1273 713,1286 683,1266L677,1262L673,1269C662,1286 644,1296 623,1296C606,1296 592,1291 582,1281L576,1275L569,1282C555,1296 544,1301 524,1300C511,1300 510,1300 502,1297C490,1292 482,1286 475,1275C473,1273 473,1273 468,1277C445,1297 408,1296 388,1274C385,1271 381,1266 380,1263C379,1260 377,1258 377,1258C376,1258 373,1260 370,1261C350,1274 323,1272 305,1258C298,1253 293,1244 289,1230C288,1230 287,1230 283,1231C256,1244 222,1229 216,1201C215,1198 214,1196 214,1196C212,1196 190,1246 190,1249C190,1252 195,1261 201,1267C215,1283 243,1295 266,1295L272,1295L275,1299C279,1306 291,1316 300,1321C332,1340 377,1347 421,1338C430,1337 430,1337 433,1338C467,1359 515,1367 568,1362ZM544,1293C555,1289 566,1280 573,1269L575,1267L582,1274C609,1302 656,1295 671,1261C673,1258 675,1255 675,1255C676,1255 678,1257 681,1259C698,1272 720,1274 738,1265C750,1259 760,1248 764,1236C765,1233 766,1230 766,1230C767,1229 771,1231 775,1233C806,1249 842,1231 850,1197L851,1190L846,1180C843,1174 840,1169 840,1169C839,1169 839,1171 838,1173C835,1195 820,1211 799,1214C788,1216 774,1213 764,1206C761,1205 758,1203 758,1203C757,1203 756,1205 755,1208C752,1226 736,1241 718,1244C703,1247 686,1241 674,1230C671,1228 669,1226 669,1226C668,1226 666,1230 664,1235C649,1268 607,1274 581,1247C578,1244 576,1241 575,1240C575,1237 573,1238 570,1242C566,1250 556,1259 546,1263C538,1267 537,1267 528,1268C507,1269 490,1259 481,1242C479,1239 478,1236 478,1236C478,1236 474,1239 470,1243C458,1255 448,1259 433,1259C419,1259 408,1255 399,1246C394,1241 387,1229 387,1224C387,1221 386,1221 381,1226C378,1228 372,1232 367,1234L359,1238L346,1238C334,1238 333,1238 327,1235C315,1230 306,1219 304,1205C302,1195 302,1196 299,1198C289,1205 275,1209 264,1207C245,1204 233,1191 231,1171C231,1168 230,1165 230,1165C230,1165 227,1170 224,1175L219,1186L219,1193C222,1224 257,1241 285,1225C291,1222 293,1223 293,1228C295,1239 303,1250 313,1257C330,1269 358,1267 373,1253C378,1249 380,1249 382,1255C393,1288 441,1297 467,1272C471,1268 474,1266 475,1266C475,1266 477,1268 478,1270C482,1280 495,1290 507,1294C517,1297 534,1297 544,1293ZM536,1262C548,1259 562,1248 568,1235C570,1231 573,1228 574,1228C574,1228 576,1231 578,1234C582,1242 590,1249 598,1254C625,1267 654,1254 664,1224C665,1220 666,1218 667,1217C667,1217 671,1220 675,1224C702,1252 745,1241 751,1203C752,1200 752,1196 753,1195C753,1193 756,1194 759,1197C766,1204 779,1209 792,1209C801,1209 802,1209 809,1206C824,1199 832,1186 835,1165L835,1158L828,1144C819,1128 816,1122 803,1100C794,1085 792,1083 791,1083C789,1084 785,1085 780,1086C752,1095 706,1087 666,1066C623,1043 582,1004 558,963C556,959 554,956 553,956C552,956 550,958 547,968C523,1033 454,1090 378,1106C339,1114 297,1112 276,1101C273,1099 270,1098 270,1098C268,1100 257,1119 247,1134L236,1153L236,1163C236,1188 248,1202 270,1202C280,1202 289,1199 298,1193C306,1186 307,1187 308,1197C309,1207 310,1212 315,1218C329,1240 359,1240 380,1219C384,1215 388,1212 388,1212C389,1213 390,1216 391,1219C393,1233 402,1244 414,1250C426,1256 445,1255 457,1247C463,1244 470,1237 474,1231C478,1226 480,1226 483,1234C492,1257 513,1268 536,1262ZM352,1105C428,1097 497,1052 532,988C539,976 546,957 545,956C544,953 513,940 489,933C462,924 449,918 439,912L435,909L427,914C385,937 335,990 302,1042C298,1050 293,1057 291,1060C284,1068 273,1089 273,1091C274,1094 282,1099 292,1102C307,1106 332,1107 352,1105ZM776,1082C780,1082 784,1080 786,1079L789,1077L786,1073C741,1001 681,938 630,911L622,907L618,911C611,917 605,922 587,933C568,945 558,952 558,953C558,954 571,974 577,983C613,1030 665,1066 714,1079C724,1082 735,1083 746,1084C752,1085 769,1084 776,1082ZM248,1059C250,1057 255,1052 258,1048C264,1041 278,1029 280,1029C282,1029 282,1032 280,1039C277,1047 277,1054 280,1056C284,1060 286,1058 296,1042C306,1025 309,1018 309,1004C310,994 310,995 298,991C290,988 282,983 276,977C274,975 271,973 271,973C270,973 246,993 240,999C228,1010 222,1021 221,1032C220,1037 221,1042 222,1040C222,1040 224,1036 226,1032C231,1022 240,1012 240,1016C240,1017 239,1019 237,1021C231,1031 225,1045 225,1052C225,1053 226,1056 227,1057C229,1059 229,1059 231,1058C232,1057 233,1054 234,1051C237,1042 249,1025 253,1025C255,1025 254,1025 249,1033C241,1045 236,1058 237,1062C239,1066 243,1064 248,1059ZM327,997C344,976 376,942 385,936C388,934 388,932 384,932C382,931 378,930 376,929L371,926L366,933C359,943 346,958 338,968C331,976 331,976 332,980C333,988 328,993 320,995L316,996L315,1004L315,1012L317,1010C318,1008 323,1002 327,997ZM323,988C325,986 326,985 326,983C326,979 325,978 316,975C303,971 286,960 282,953C279,947 271,951 271,958C271,963 274,968 281,974C295,987 316,994 323,988ZM334,964C356,939 370,919 386,887L391,878L387,876C385,874 382,872 381,870C379,867 378,867 373,868C362,869 352,864 349,855C347,851 347,851 344,851C340,851 340,851 333,864C330,871 323,883 318,891C303,917 300,922 293,936C285,951 285,951 295,959C303,965 319,972 325,973C325,973 329,969 334,964ZM850,952C850,948 846,943 836,938C824,930 829,925 851,924C862,924 867,925 876,929C879,931 881,931 881,930C883,929 879,925 873,922C871,921 869,919 869,919C869,917 873,918 880,921C887,925 890,925 890,920C890,912 875,905 856,903C842,902 847,900 864,900C878,900 879,900 879,898C879,897 878,896 875,894C866,889 849,889 826,892C817,894 809,895 808,895C805,895 801,900 796,911C793,918 790,931 791,934C793,939 810,947 823,950C827,950 833,952 836,954C839,955 843,956 846,956C849,956 850,955 850,952ZM561,944C567,940 580,932 590,925C608,913 617,906 617,903C617,901 614,895 613,895C612,895 610,896 609,897C607,899 596,905 585,912C574,919 561,926 557,929C553,932 549,934 549,934C548,934 543,932 537,930C525,924 515,920 484,911C471,906 457,901 452,900L444,896L443,898C440,902 440,906 442,908C448,913 461,918 492,928C515,936 535,944 544,949C546,950 549,952 549,952C550,952 555,949 561,944ZM784,940C785,939 786,937 786,934C786,922 791,908 799,896C804,889 804,889 801,885C792,877 779,890 773,914C770,924 770,936 772,939C776,943 780,944 784,940ZM766,920C768,910 772,900 776,893C778,890 779,887 779,887C779,886 776,884 772,883C761,878 724,859 717,855C713,853 706,847 701,842L692,833L688,834C684,835 684,836 682,841C680,843 678,847 675,849C672,852 663,855 660,854C659,853 657,855 653,859L648,864L652,869C670,893 694,909 732,922C745,926 763,930 764,929C765,929 766,924 766,920ZM556,924C560,921 573,914 585,907C612,890 611,892 611,883C612,879 613,872 614,867C623,816 620,784 606,756C600,743 598,742 598,748C598,751 598,754 596,756C594,760 587,764 583,764C581,764 579,765 577,768C573,775 565,777 554,774C553,773 552,774 550,777L547,780L551,779C562,777 569,780 575,787C587,801 583,823 565,842C559,848 547,857 545,857C540,857 517,841 510,833C496,815 497,793 513,784C518,781 518,781 514,778L511,776L507,778C497,786 483,783 475,773C472,769 471,768 469,769C466,770 458,770 454,768C452,768 450,767 450,767C450,768 450,771 451,776C454,797 449,822 439,838L435,844L438,856C442,867 444,876 446,886C446,891 447,892 452,894C457,897 474,902 508,913C518,917 530,921 536,924C542,927 547,929 548,929C549,929 552,927 556,924ZM403,922C408,918 417,913 423,909C437,901 439,899 438,886C438,878 437,874 435,864C433,856 431,850 431,850C430,850 427,852 422,854C415,857 414,858 414,861C413,871 410,876 402,878L397,879L390,893C386,900 381,909 379,913C373,922 374,923 383,926C392,929 394,929 403,922ZM658,913C663,911 667,907 670,901L671,898L662,889C657,885 650,877 647,873C643,868 641,866 639,866C633,866 626,861 624,854C623,847 622,850 618,876L617,888L620,894C623,901 623,901 631,905C635,907 641,910 644,912C651,917 651,917 658,913ZM310,893C315,884 323,871 327,863L334,850L330,846C323,838 324,829 332,823L337,820L334,814C333,810 332,805 331,801C329,773 356,736 387,725C396,721 412,720 420,722C424,723 424,723 426,721C432,716 443,714 451,719L456,721L463,719C474,717 475,716 476,708C476,705 476,701 475,701C475,700 470,699 464,698C425,689 394,672 375,649L369,641L364,645C358,651 350,653 340,653C313,653 290,633 286,606C284,592 287,580 296,571C303,563 309,561 321,561C332,562 339,565 348,574C351,577 353,580 354,580C354,580 356,572 358,563C359,553 360,538 358,538C358,538 355,541 351,544C348,547 344,550 344,550C340,550 341,547 348,541C356,532 363,522 367,512C371,503 376,489 375,488C374,488 370,489 366,491C358,494 348,498 341,499C336,501 338,498 344,495C378,481 406,462 422,441C428,435 430,433 430,435C430,435 428,438 426,442C420,452 405,468 389,479L383,483L380,494C377,504 373,516 367,525C365,529 365,530 365,546C364,562 364,567 360,580C357,592 356,592 347,582C337,571 329,567 319,567C303,567 292,579 292,598C292,618 303,634 321,643C328,646 329,646 338,647C348,647 349,647 355,644C359,642 363,639 365,636C367,634 369,631 369,631C369,631 371,633 374,636C392,662 420,680 459,690C479,695 491,696 514,696C546,696 566,692 595,678C634,660 659,632 668,600C670,591 670,571 668,562C667,559 665,552 664,546C661,538 661,533 660,514C659,489 657,474 652,460C650,452 650,451 640,442C634,436 624,427 613,419C594,406 583,396 577,387C575,384 573,382 573,382C572,382 571,384 570,387C562,413 540,438 515,450C504,455 496,457 493,455C489,452 489,452 493,442C498,433 502,421 502,419C502,418 499,421 495,425C483,439 465,451 446,461C428,469 414,473 415,470C415,469 422,466 430,462C449,453 458,448 469,440C485,428 501,412 507,398C517,378 510,418 499,442C495,450 496,451 504,449C536,438 566,399 570,364C570,356 572,354 573,360C574,362 574,366 575,368C577,380 589,395 612,412C636,428 644,435 654,448C664,460 673,480 673,491C673,497 671,496 668,486C663,471 662,470 664,484C664,488 665,502 666,514C667,526 668,538 668,541C669,544 671,551 672,556C684,596 668,636 628,666C610,680 583,692 560,698C554,699 548,700 547,701C546,701 546,708 547,711C549,715 552,716 563,717C573,718 573,718 577,716C583,711 595,711 601,715C604,717 604,717 610,715C630,710 652,720 671,742C686,759 693,780 689,797C687,803 687,804 690,804C693,804 699,808 700,811C703,815 702,821 700,825C697,830 698,831 707,839C714,846 724,853 731,857C736,859 740,857 747,849C754,842 757,834 757,827C757,822 756,822 752,820C740,815 735,805 740,794C741,792 745,786 748,783C765,762 768,746 759,727C756,721 750,714 738,704C727,695 724,689 724,678L724,670L731,656C740,638 741,633 741,620C741,601 736,591 716,569C698,550 694,541 694,526C694,517 694,516 699,499C710,467 711,446 701,417C690,383 668,356 643,344C634,339 634,339 632,334C624,319 603,303 579,295C570,292 553,289 552,290C550,290 551,307 552,308C553,308 556,309 560,310C573,314 584,323 588,332C589,336 589,336 588,338C586,339 585,339 574,337C558,333 550,332 528,332C507,332 494,333 473,337C406,348 345,379 314,417C306,426 302,425 303,412C304,404 306,396 312,386C316,379 332,363 340,358C346,354 346,353 346,351C344,345 336,324 334,324C330,324 310,336 298,346C257,378 233,424 229,478C228,495 229,510 233,536C238,564 237,583 230,596C226,605 222,610 207,625C191,642 184,651 180,662C177,670 177,671 177,682C177,699 180,706 194,722C202,731 204,735 204,743C204,750 202,753 189,765C174,780 172,784 172,800C172,809 173,811 175,816C181,828 189,835 201,839C208,841 218,841 223,839C225,838 225,838 221,833C215,824 213,819 213,810C213,799 215,793 225,781C234,769 237,763 238,755C238,746 236,739 231,731C218,713 215,703 217,692C219,680 223,674 237,660C244,652 251,645 252,643C255,639 259,630 259,627C259,626 260,625 260,625C262,625 260,634 257,641C255,647 251,651 241,662C225,678 222,683 221,695C221,706 223,712 231,724C240,737 242,743 242,752C242,763 240,769 230,780C219,794 218,798 218,808C218,820 219,824 230,835C238,844 240,848 240,855C240,863 235,870 227,872C222,874 222,875 226,883C233,898 253,908 271,907C280,906 281,905 277,900C271,892 269,885 269,876C270,867 272,861 281,850C290,837 291,833 291,822C291,814 291,813 288,806C279,789 278,787 276,780C273,763 278,750 292,733C312,709 317,700 317,685C317,678 319,677 320,684C321,693 317,706 311,716C309,719 303,726 299,732C285,747 280,757 280,771C280,780 281,783 289,799C295,811 295,812 296,820C296,833 294,839 283,854C276,864 274,870 274,879C275,887 277,893 282,899C286,903 297,910 299,910C300,910 305,902 310,893ZM1265,774C1265,702 1264,643 1264,643C1264,642 1258,642 1251,642L1240,642L1239,652L1238,662L1225,662L1212,662L1211,652L1210,640L1196,640L1182,640L1181,652L1180,662L1165,663C1155,663 1149,663 1148,662C1147,661 1147,658 1147,651L1146,640L1134,640L1120,640L1120,652L1120,662L1108,663L1098,664L1097,728C1097,764 1097,818 1098,849L1098,904L1152,905C1181,905 1219,906 1236,906L1266,906L1265,774ZM897,840C897,769 897,756 902,741C910,712 929,689 953,679C961,676 963,677 974,682C996,693 1012,715 1020,746C1022,754 1022,757 1023,830L1024,904L1033,905L1042,905L1042,895C1042,890 1042,855 1042,818L1041,750L1039,740C1030,702 1009,675 979,661C964,653 957,654 940,662C909,678 887,709 881,748C879,756 879,768 879,823L879,889L882,893C885,896 885,897 885,901L884,905L891,905L898,904L897,840ZM1018,839C1018,798 1018,769 1017,762C1014,729 995,698 971,686C962,682 959,682 949,687C930,697 913,720 906,745C904,753 904,755 903,828C903,869 903,903 903,903C904,904 921,904 961,904L1018,904L1018,839ZM1092,750C1092,606 1092,596 1090,595C1089,594 1085,594 1076,594L1064,594L1063,604C1062,610 1062,615 1062,616C1061,618 1037,618 1035,616C1035,615 1034,610 1034,604L1034,594L1020,594L1006,594L1006,604C1006,610 1005,615 1005,616C1004,618 979,618 977,616C977,615 976,610 976,604L976,594L960,594L946,594L945,605C945,612 945,615 944,616C943,617 938,617 929,617L916,616L916,606L916,594L902,594L888,594L887,606L886,616L881,617C871,618 862,618 861,617C861,616 860,611 860,605L860,596L848,596C841,596 835,596 834,596C832,597 832,601 832,741C833,820 833,885 834,885C834,885 838,885 843,885C850,884 855,884 860,885C865,885 869,886 870,886C872,886 873,886 873,820C874,746 874,746 881,725C891,696 910,672 935,659C953,649 963,648 977,654C1008,667 1031,694 1041,730C1047,750 1047,748 1048,828C1048,869 1048,903 1049,904C1049,905 1054,905 1071,905L1092,904L1092,750ZM820,888C824,887 827,886 828,886C828,885 828,833 827,770L826,656L810,656C800,656 793,656 792,655C791,654 791,650 791,642L790,630L777,630C770,630 763,631 762,631C760,632 760,633 760,644C760,653 760,656 759,657C758,657 753,657 747,658L736,658L733,665C731,670 730,672 730,678C730,688 733,693 745,703L753,708L756,705C768,695 782,701 787,718C790,726 791,762 789,764C788,766 785,766 777,766L766,766L765,769C763,773 758,780 753,786C747,793 745,798 745,803C745,810 750,815 757,815C760,815 761,816 762,817C764,820 763,833 761,839C759,846 751,855 746,858C745,859 743,861 743,862C743,863 780,881 784,881C784,881 786,880 788,879C791,877 799,877 802,879C804,880 806,883 807,885C809,889 810,890 820,888ZM404,872C407,870 409,865 409,861C409,858 408,857 404,857C397,856 392,854 387,850C384,848 382,847 380,847C375,847 366,842 363,838C362,837 360,835 360,835C356,835 350,832 346,829C340,824 339,824 334,829C332,831 331,832 331,835C331,842 335,845 345,846C351,846 351,847 352,850C355,860 366,866 376,861C379,860 380,860 381,862C386,869 388,870 390,872C395,873 400,873 404,872ZM647,858C649,856 652,854 653,851C655,847 655,847 659,848C666,850 676,844 677,836C679,830 679,830 682,830C689,830 697,824 697,818C697,814 693,810 689,809C685,809 685,809 680,814C677,817 673,820 669,822C666,823 663,826 660,829C655,837 641,845 632,845C629,845 628,847 629,852C631,860 640,863 647,858ZM418,850C426,846 430,842 434,836C447,816 450,789 442,760L440,749L434,747C427,743 424,739 423,731C422,728 420,727 408,727C391,727 375,734 360,751C346,766 337,783 337,797C337,808 343,821 351,826C358,831 358,831 358,823C358,817 358,816 359,816C360,816 361,818 361,822C362,829 366,835 371,839C377,842 386,843 391,840C397,837 398,839 393,843C390,846 390,846 392,847C398,852 410,853 418,850ZM550,849C561,841 573,826 576,817C583,792 563,774 545,788L541,791L535,789C520,781 505,791 505,808C505,822 517,837 537,848C545,853 545,853 550,849ZM537,839C530,835 520,825 517,820C508,802 525,787 539,800C541,801 541,801 545,798C561,785 575,801 565,821C561,829 548,842 545,842C544,842 540,841 537,839ZM639,838C653,833 661,824 662,811C662,807 663,804 663,804C664,804 666,812 666,815C665,819 667,818 672,814C685,803 688,782 678,763C669,744 651,728 633,722C627,720 612,719 609,721C608,722 608,724 608,727C608,731 607,734 606,736C604,740 604,740 605,743C609,749 617,766 619,774C624,790 625,803 625,823L624,840L629,840C632,840 636,839 639,838ZM552,832C560,823 563,816 563,809C564,797 553,794 545,804C542,808 542,808 535,802C531,799 525,799 522,801C517,806 519,816 526,824C530,829 542,838 544,838C545,838 548,835 552,832ZM714,793C713,793 714,789 716,786C722,773 724,767 724,758C724,746 721,740 705,724C691,710 687,704 686,692C686,682 687,676 693,663C699,649 701,643 701,634C701,625 699,618 695,610C692,604 693,602 696,607C702,614 704,622 705,632C705,644 704,650 697,665C685,690 688,701 709,722C723,736 726,741 728,752C730,760 728,769 723,780C718,791 715,795 714,793ZM538,779C542,778 546,774 550,768C552,766 552,766 554,767C559,770 563,771 567,770C571,769 573,767 575,762C576,759 576,759 580,759C591,760 595,753 591,741C591,740 591,739 592,739C597,739 603,733 603,728C603,721 596,716 588,717C581,718 578,720 578,724C578,735 567,748 554,755C533,764 503,763 478,751C467,745 460,740 454,730C449,723 448,723 442,721C435,720 428,725 428,730C428,737 435,743 443,743L447,743L446,748C446,754 448,758 453,762C457,765 465,766 469,764C475,761 475,762 477,765C482,779 498,782 508,772C511,768 512,768 514,771C519,778 529,781 538,779ZM1151,777C1149,775 1150,737 1151,728C1158,698 1185,691 1197,716C1201,726 1202,731 1202,755L1202,778L1177,778C1159,778 1152,778 1151,777ZM1197,753C1197,731 1196,725 1192,717C1185,704 1171,703 1162,715C1157,722 1156,728 1155,750C1155,761 1155,771 1155,772C1156,773 1159,773 1176,773L1196,772L1197,753ZM784,742C784,723 783,717 777,710C772,704 764,704 759,709L757,712L761,718C768,729 772,744 769,756C769,758 768,760 769,760C769,761 773,761 777,761L784,760L784,742ZM538,754C554,751 568,741 571,730C574,724 573,723 567,723C564,723 559,722 555,722C551,721 548,720 548,721C545,722 541,713 540,706L540,703L514,702C500,702 487,702 486,702L482,702L482,708C481,719 477,723 464,725C461,726 458,727 458,727C458,730 473,743 478,746C495,755 520,758 538,754ZM526,659C514,654 504,642 501,628C499,620 501,619 508,622C523,627 546,625 562,618C570,614 574,613 572,617C572,618 571,621 570,625C567,642 559,653 548,658C544,660 531,661 526,659ZM1234,649C1234,638 1235,637 1241,636L1246,636L1246,592L1246,550L1236,549C1205,547 1115,547 1113,550C1112,551 1113,657 1114,657C1115,657 1115,653 1115,648C1115,641 1115,638 1116,637C1117,636 1123,636 1133,635C1152,635 1151,634 1152,648L1152,658L1164,658L1176,658L1177,647C1177,634 1176,635 1197,635C1217,636 1216,635 1216,647C1216,659 1216,659 1226,659L1234,658L1234,649ZM546,653C551,651 556,647 556,645C556,642 550,636 545,634C541,632 522,630 510,630C507,630 508,632 510,638C518,652 534,659 546,653ZM755,640C755,631 755,628 757,627C759,625 792,625 794,627C795,628 796,632 796,639L796,650L812,650L826,650L827,622C827,606 827,594 828,592C829,591 829,585 829,578L828,564L824,564C818,563 738,563 730,564C720,564 720,564 727,571C747,594 754,621 743,645C740,653 740,653 748,653L754,652L755,640ZM562,633C564,628 564,624 563,624C562,624 548,629 548,630C548,630 550,632 552,633C554,634 557,636 557,637C559,640 560,639 562,633ZM1150,628C1148,625 1149,591 1151,585C1154,579 1161,571 1165,569C1170,567 1178,568 1183,572C1191,578 1194,586 1195,608C1196,630 1197,628 1171,629C1154,629 1151,629 1150,628ZM330,622C324,615 325,607 332,600C334,598 334,598 332,596C325,591 312,591 310,597C309,598 309,598 308,597C306,596 310,590 314,588C324,583 340,592 347,607C350,615 348,616 343,609C338,602 336,602 333,606C331,609 330,616 332,620C335,625 334,626 330,622ZM1189,623C1190,622 1190,604 1188,592C1187,577 1173,568 1163,577C1156,583 1155,588 1154,606C1154,614 1154,622 1154,623C1155,624 1187,625 1189,623ZM882,602C882,596 883,591 884,591C885,590 890,589 901,589C921,589 920,588 921,602L922,612L930,612L940,612L940,602C940,596 941,591 941,590C943,588 979,588 980,590C980,591 981,596 981,602L982,612L991,612L1000,612L1001,602C1001,596 1002,591 1002,590C1003,589 1007,589 1020,589C1033,589 1037,589 1038,590C1038,591 1039,596 1039,602L1040,612L1046,612L1054,612L1054,546C1054,510 1054,480 1053,480C1051,478 967,477 922,478C897,479 875,479 873,480L870,481L869,546C869,581 869,611 869,612C870,613 872,613 876,613L882,612L882,602ZM440,596C412,583 419,533 448,537C471,541 480,580 460,594C455,598 446,599 440,596ZM549,597C549,597 551,595 553,593C564,583 554,573 540,580C534,584 532,582 537,578C543,572 551,572 558,576C565,581 564,590 556,596C553,598 549,599 549,597ZM413,583C409,578 407,573 406,566C404,561 404,561 401,560C396,559 392,556 391,554C389,551 391,550 394,551C395,552 398,553 400,554C404,554 404,554 405,552C406,548 406,547 402,544C398,542 395,538 396,535C397,534 397,534 400,536C402,538 404,539 404,539C404,539 406,539 406,540C407,540 409,538 411,535C416,528 422,522 429,519C434,517 436,516 444,516C455,516 462,519 469,526C473,530 478,538 477,539C477,539 474,536 470,533C462,525 456,523 444,523C431,524 422,530 415,543C412,550 412,551 412,562C412,572 412,574 414,579C417,586 416,587 413,583ZM932,572C931,569 932,531 933,525C942,494 971,488 984,514C988,524 989,532 989,553L988,572L961,573C940,573 933,573 932,572ZM592,569C579,563 572,540 578,524C585,508 603,505 614,518C624,530 625,553 615,564C609,570 599,572 592,569ZM983,550C983,530 983,524 978,516C967,494 944,501 938,528C937,534 937,566 938,567C938,568 949,568 961,568L984,568L983,550ZM455,562C456,560 457,558 458,555C459,547 449,542 443,547C436,555 446,569 455,562ZM746,558C763,557 780,557 802,558C826,559 835,559 836,558C837,557 838,513 836,512C836,511 832,511 827,511L818,510L818,520L818,530L809,530C801,530 801,530 800,527C799,526 799,521 799,518C799,514 799,510 798,510C798,509 794,509 789,509L780,510L780,518C780,523 779,528 779,529C777,530 760,531 758,529C757,528 757,524 757,519C757,508 757,508 745,510L736,510L735,520L734,530L726,530C715,531 715,531 715,520L714,512L712,511C702,510 700,513 700,526C700,533 700,535 703,541C705,545 709,551 711,554C716,560 712,559 746,558ZM1126,543C1161,541 1236,542 1249,544C1255,545 1255,544 1256,521L1256,500L1254,499C1253,499 1248,498 1243,498L1234,498L1234,507L1234,516L1222,516L1212,516L1211,506L1210,496L1198,496L1186,496L1186,505C1186,510 1185,515 1185,516C1184,517 1159,517 1157,516C1156,515 1156,512 1156,505C1156,498 1156,496 1155,495C1154,495 1149,495 1143,496L1132,496L1132,506L1132,516L1124,517C1120,518 1115,518 1113,518L1110,518L1109,508L1108,498L1100,499C1095,499 1090,499 1089,499C1087,500 1087,542 1089,544C1090,545 1093,545 1098,545C1103,544 1116,543 1126,543ZM639,539C639,532 636,522 634,515C622,489 591,488 578,512C574,521 572,516 576,508C586,487 608,481 626,494L630,497L633,494C634,493 636,490 637,489C638,488 638,488 639,489C641,490 640,496 637,499C635,502 635,504 636,506C638,508 640,508 645,504C646,503 647,502 648,502C650,504 649,506 644,511C640,515 640,515 641,519C643,527 642,543 640,543C639,543 639,541 639,539ZM606,533C610,529 610,524 606,520C600,514 590,521 593,529C595,536 601,538 606,533ZM730,517C730,505 730,505 747,505C756,505 760,505 761,506C761,507 762,511 762,516L762,524L769,524L776,524L776,515L776,506L789,505C797,505 802,505 803,506C803,507 804,510 804,516L804,524L808,524L812,524L813,465C813,432 813,404 812,404C809,401 763,399 736,401C719,402 705,404 704,404C704,405 705,410 707,416C717,445 716,470 706,499C705,503 704,506 705,506C705,506 708,507 711,506C719,505 720,507 720,517C720,521 720,525 721,525C721,526 723,526 726,526L730,526L730,517ZM1127,503C1127,493 1127,493 1130,492C1134,490 1159,491 1160,492C1160,493 1161,498 1161,503L1162,512L1171,512L1180,512L1181,502C1181,497 1182,493 1183,492C1184,491 1213,490 1214,492C1215,492 1215,497 1215,502L1216,511L1221,512C1230,514 1229,520 1229,452C1229,405 1229,391 1228,390C1222,386 1124,385 1112,390L1110,391L1110,441C1110,490 1110,492 1112,494C1114,495 1114,497 1114,503C1114,508 1114,512 1115,512C1115,513 1118,513 1121,513L1126,512L1127,503ZM404,503C402,500 409,489 416,483C426,475 443,472 449,476C454,479 452,480 444,481C429,482 420,487 410,498C407,501 404,504 404,503ZM736,483C735,480 737,446 738,441C746,421 766,418 776,436C779,443 780,452 780,469L780,484L758,485C740,485 737,485 736,483ZM775,466C775,446 772,436 765,431C755,425 745,433 742,448C741,455 741,478 742,479C742,480 750,480 758,480L774,480L775,466ZM898,473C928,472 1007,472 1034,473C1061,474 1060,474 1063,471L1066,468L1066,443C1066,423 1066,417 1065,416C1064,416 1059,415 1054,415L1044,414L1044,424C1044,430 1043,434 1043,435C1042,435 1038,436 1030,435L1020,434L1019,424L1018,414L1015,413C1013,412 1008,412 1004,412L996,412L996,423C996,435 996,435 982,434L972,434L972,423L972,412L960,412L949,412L949,422C948,428 948,433 947,434C945,436 927,436 925,434C925,433 924,428 924,423L924,414L913,413L902,413L902,423C902,431 902,434 901,435C900,436 896,436 888,436L878,436L877,426L876,416L868,416C854,416 855,414 855,443C856,457 856,469 857,470C859,473 863,475 870,475C873,474 886,474 898,473ZM1147,473C1146,472 1146,440 1147,435C1150,421 1159,411 1169,411C1177,411 1187,419 1189,428C1192,437 1193,468 1191,472C1190,474 1189,474 1169,474C1157,474 1147,474 1147,473ZM1186,450C1186,433 1185,432 1183,427C1175,412 1160,413 1154,430C1152,434 1152,438 1151,451C1151,459 1151,467 1151,467C1152,469 1154,469 1169,469L1186,468L1186,450ZM618,458C607,451 592,450 582,455C578,457 576,458 576,457C574,455 577,451 583,448C592,443 603,443 612,448C621,452 629,461 624,462C624,462 621,460 618,458ZM897,420L898,410L902,409C912,408 927,408 928,409C928,410 929,415 929,420L930,430L935,430C939,430 942,430 942,429C943,429 944,424 944,418L944,408L949,408C951,407 958,407 963,407C976,407 977,407 977,420L978,430L984,430L990,430L991,420C991,412 991,410 993,409C995,407 1021,407 1022,409C1023,410 1024,414 1024,420L1024,430L1029,430L1033,430L1033,360C1033,322 1033,290 1033,290C1033,290 1025,289 1015,288C982,285 899,287 888,291L886,292L886,361C886,399 886,430 887,430C887,431 889,431 892,431L896,430L897,420ZM319,402C351,369 407,343 470,331C504,325 551,324 574,330C581,332 582,331 577,326C565,315 543,310 507,311C430,314 343,350 317,389C312,397 307,412 309,412C310,412 314,408 319,402ZM822,406C822,405 819,404 819,405C818,405 818,406 819,406C820,407 822,407 822,406ZM714,397C742,394 788,394 812,398C818,398 823,399 824,399C824,398 819,387 812,374C805,361 790,331 779,308C767,285 758,266 757,267C757,267 752,277 746,288C741,299 728,327 717,349C706,371 697,389 697,390C697,390 698,392 699,394C701,399 701,399 704,399C705,398 710,398 714,397ZM1104,393C1104,391 1100,391 1099,393C1099,393 1100,394 1101,394C1103,395 1104,395 1104,393ZM1240,393C1240,392 1237,391 1235,391C1233,392 1235,394 1237,394C1238,394 1239,394 1240,393ZM1110,385C1141,379 1206,380 1235,385C1238,386 1241,386 1241,385C1241,385 1237,376 1232,366C1220,344 1184,273 1175,255C1172,248 1169,242 1169,242C1168,242 1162,254 1155,269C1148,284 1132,316 1119,341C1107,365 1097,385 1097,385C1097,386 1101,386 1110,385ZM934,382C932,380 933,346 934,338C938,322 948,311 960,311C964,311 972,316 976,320C983,328 984,333 985,358C985,374 985,380 984,382C982,383 936,384 934,382ZM980,361C980,352 980,343 979,340C974,315 953,309 943,330L940,336L939,355C939,366 939,375 939,376C940,377 943,377 960,377L980,376L980,361ZM362,344C413,318 480,302 529,306C537,306 544,307 544,306C545,306 545,302 545,297C545,287 547,260 549,239L551,227L548,225C544,223 542,224 536,228C528,233 522,238 509,251C502,257 496,262 495,262C493,262 469,237 437,201C434,198 434,198 422,201C422,201 419,208 416,217C407,243 391,281 387,285C386,286 384,285 377,282C360,274 335,266 324,264C320,264 319,264 317,267L314,270L320,281C330,298 340,319 345,332C352,349 352,349 353,349C353,349 358,347 362,344ZM437,303C432,301 425,294 422,288C417,278 420,263 428,255C451,236 481,267 464,293C458,302 447,306 437,303ZM455,295C468,286 465,262 451,256C437,251 424,262 425,279C427,294 443,303 455,295ZM880,295C880,293 878,292 876,293C873,293 872,295 875,295C878,296 880,296 880,295ZM1046,293C1046,292 1040,291 1039,292C1038,295 1040,296 1043,295C1045,294 1046,293 1046,293ZM900,284C943,279 1008,280 1046,286C1048,287 1047,284 1030,253C1010,219 995,190 974,148C966,133 959,120 959,120C958,120 948,140 936,164C916,203 897,239 878,273C874,281 871,287 872,287C872,287 875,287 879,286C882,286 892,284 900,284ZM310,264C314,263 316,258 316,253C316,250 315,248 312,245C309,242 309,242 304,242C298,243 295,245 293,250C289,260 300,270 310,264ZM768,234C776,231 784,231 794,234C798,236 804,237 806,237C815,237 821,233 816,232C815,231 813,230 812,229C811,227 811,227 815,223C821,218 820,218 813,217C807,217 805,217 795,212L783,206L775,206C771,206 766,207 764,208L762,210L761,223C761,231 761,237 761,237C762,237 764,236 768,234ZM560,219C565,215 567,210 564,204C559,194 545,196 542,208C542,212 544,217 549,219C554,222 556,221 560,219ZM1190,206C1196,206 1198,206 1206,209C1216,212 1225,213 1231,210C1235,208 1235,208 1229,205L1225,202L1229,198C1236,192 1235,191 1227,191C1219,191 1217,190 1204,183C1195,178 1183,177 1175,182L1172,183L1172,197C1172,204 1172,211 1173,211C1173,212 1175,211 1178,209C1182,208 1186,207 1190,206ZM761,196C762,195 763,193 763,192C763,189 759,186 757,186C754,186 751,189 751,192C751,197 759,200 761,196ZM433,190C437,187 437,186 437,182C437,173 432,168 424,168C420,168 418,169 415,171C406,180 412,194 425,194C429,194 430,193 433,190ZM1172,168C1176,165 1173,158 1168,158C1163,158 1160,164 1164,168C1166,170 1170,171 1172,168ZM1032,88C1038,87 1038,86 1033,84C1031,83 1028,81 1027,80C1026,78 1026,78 1029,76C1030,75 1033,72 1035,70L1038,66L1028,66C1017,65 1013,64 1005,59C997,53 990,51 982,51C976,51 966,53 963,55C962,56 961,89 963,89C963,89 966,88 968,86C980,81 989,81 1006,87C1015,90 1024,91 1032,88ZM962,40C963,39 964,37 964,35C964,30 957,27 953,31C947,37 956,46 962,40Z"/></svg>