<svg xmlns="http://www.w3.org/2000/svg" viewBox="0 0 1408 1408"><path fill="#000" fill-rule="evenodd" d="M1080,1335C978,1325 904,1280 886,1216C881,1198 882,1166 888,1148C898,1116 923,1090 963,1070C970,1067 976,1064 977,1064C980,1064 977,1062 969,1058C918,1032 894,991 898,943C901,913 911,891 933,870C966,836 1021,814 1089,807C1105,805 1152,805 1167,807C1209,812 1240,820 1270,835C1312,856 1337,884 1346,919C1350,934 1350,965 1346,980C1337,1013 1312,1041 1275,1060C1269,1063 1264,1066 1264,1066C1264,1066 1269,1069 1275,1072C1293,1081 1309,1092 1322,1105C1342,1125 1350,1143 1354,1173C1365,1261 1286,1326 1158,1336C1140,1337 1097,1337 1080,1335ZM1168,1328C1213,1322 1246,1313 1275,1297C1310,1279 1336,1249 1344,1219C1346,1210 1349,1193 1348,1192C1347,1192 1347,1192 1346,1193C1345,1196 1339,1203 1336,1206C1330,1210 1322,1210 1313,1207C1305,1204 1301,1205 1297,1209C1293,1212 1292,1215 1289,1225C1284,1245 1275,1255 1260,1257C1254,1258 1247,1257 1235,1251C1225,1246 1225,1246 1218,1246C1208,1247 1203,1250 1194,1261C1182,1276 1173,1281 1160,1282C1146,1283 1138,1279 1123,1267C1113,1259 1107,1256 1097,1256C1090,1256 1083,1259 1069,1267C1060,1273 1051,1275 1042,1275C1028,1274 1019,1266 1010,1249C1004,1239 1000,1235 993,1233C988,1232 984,1232 972,1238C960,1244 953,1244 944,1240C935,1234 930,1226 929,1210C928,1199 926,1195 921,1193C917,1191 916,1191 911,1192C904,1194 899,1193 894,1190C890,1186 890,1186 890,1191C890,1232 922,1274 972,1299C1003,1315 1046,1326 1090,1329C1106,1330 1154,1329 1168,1328ZM1164,1275C1172,1273 1178,1269 1184,1262C1196,1248 1198,1246 1204,1243C1216,1237 1225,1238 1241,1246C1252,1252 1258,1252 1266,1249C1275,1245 1279,1239 1283,1222C1289,1202 1299,1195 1316,1201C1322,1203 1325,1203 1330,1202C1342,1196 1349,1174 1343,1153C1332,1113 1292,1081 1231,1063C1170,1045 1076,1044 1013,1060C964,1072 925,1096 906,1126C890,1151 887,1178 900,1185C902,1187 903,1187 910,1186C918,1184 923,1185 928,1189C932,1193 934,1197 935,1210C937,1222 939,1227 944,1232C951,1238 959,1237 972,1231C980,1227 981,1227 988,1227C1002,1227 1008,1232 1017,1248C1024,1262 1031,1267 1044,1268C1052,1268 1059,1266 1071,1259C1092,1245 1108,1246 1128,1262C1137,1270 1144,1274 1150,1275C1156,1276 1157,1276 1164,1275ZM309,1261C270,1252 215,1222 180,1191C163,1175 148,1154 139,1133C124,1098 97,1001 93,970C91,955 94,942 102,932C109,923 133,910 164,898C180,892 181,892 185,887C187,884 191,881 194,879C196,877 198,875 198,874C198,872 191,851 181,823C171,797 168,786 169,777C173,749 213,734 233,752C242,760 245,769 251,799C256,826 262,855 263,857C264,859 265,860 271,860C275,860 280,862 282,863L287,865L297,863C328,857 350,858 370,865C389,872 398,882 406,905C416,935 437,1019 444,1056C452,1097 443,1133 415,1180C400,1205 384,1225 366,1243C349,1260 345,1262 329,1263C320,1263 315,1262 309,1261ZM316,1254C316,1254 313,1252 310,1250C281,1233 249,1199 229,1166C222,1156 221,1154 221,1158C221,1168 213,1178 204,1180C197,1182 189,1181 182,1177C174,1174 174,1174 180,1180C207,1208 265,1242 305,1252C316,1255 316,1255 316,1254ZM340,1254C360,1247 405,1190 425,1145C430,1134 434,1121 434,1119C434,1119 431,1121 428,1125C409,1150 365,1173 321,1181C290,1186 265,1184 246,1174C242,1172 239,1171 238,1171C238,1172 243,1180 251,1190C274,1220 318,1255 333,1255C335,1255 338,1254 340,1254ZM665,1249C606,1244 563,1232 544,1214C535,1205 533,1198 535,1176C536,1158 538,1154 545,1146C552,1140 554,1139 586,1124C610,1113 614,1111 619,1107C657,1074 675,1002 658,952C654,941 650,934 643,924C635,912 634,908 635,903C637,897 644,893 662,890L672,888L672,880L672,872L658,872C570,867 487,839 412,789C310,720 245,617 233,506L231,493L226,488C216,478 215,464 223,459L227,457L227,387L227,318L229,315C232,313 232,312 243,312C256,311 257,310 248,306C234,300 227,287 227,269C227,255 231,244 244,220C248,212 252,205 253,203C256,194 259,194 263,204C264,207 268,214 271,220C284,241 288,254 288,269C288,288 281,301 267,307C259,310 261,311 273,312C284,312 284,313 287,315L289,318L289,388L289,457L292,459C297,460 298,463 298,471C298,480 296,485 290,489L285,492L286,499C292,577 326,647 385,706C429,748 482,782 544,804C578,816 627,825 663,826L672,826L672,809L672,792L657,790C566,783 485,746 422,681C373,631 346,575 337,506L336,492L331,489C325,483 323,478 323,470C323,463 324,460 329,458L332,457L332,387C332,320 332,317 334,315C336,313 337,312 347,312C360,311 362,310 353,307C342,303 334,291 332,277C329,261 334,245 349,221C352,215 356,208 357,204C361,194 363,193 367,203C368,206 373,214 377,221C389,242 392,251 393,265C394,285 387,299 372,306C363,310 364,311 378,312C388,312 389,313 391,315L394,317L393,387L393,457L397,459C406,463 404,484 393,489C390,491 390,491 390,497C390,516 399,552 410,578C449,666 543,730 648,742C655,743 664,744 667,744L672,744L672,725L672,706L668,706C654,706 625,700 604,693C524,667 465,606 447,531C444,520 441,503 441,497C441,495 440,493 440,492C432,486 430,483 429,479C425,468 427,460 433,458L436,457L436,388L436,318L438,315C441,313 441,312 452,312C465,311 466,310 457,306C443,300 435,285 436,265C437,252 440,242 451,224C456,215 461,206 462,203C466,194 468,194 471,203C472,205 476,213 480,220C494,245 497,254 497,272C496,281 496,283 494,288C490,297 485,302 477,306C474,308 471,310 471,310C472,311 475,312 482,312C493,312 493,313 496,315L498,318L498,388L498,457L501,459C506,460 507,463 507,470C507,479 504,486 498,489L494,492L494,499C502,581 569,644 660,658C666,658 671,659 672,659C673,658 673,632 672,625C672,619 672,619 669,619C667,619 661,618 656,617C606,604 570,574 553,530C551,523 546,501 546,496C546,493 545,492 543,491C536,487 532,479 532,469C532,463 533,460 538,459L541,457L541,387C541,320 541,317 543,315C545,313 546,312 556,312C568,311 571,310 565,308C555,304 549,299 545,289C542,284 542,281 541,272C540,255 544,243 557,222C560,217 564,209 566,204C569,198 571,196 572,196C573,197 574,197 578,206C580,210 584,218 588,224C599,243 603,255 602,272C601,281 601,284 598,289C594,297 589,303 581,306C573,310 574,312 586,312C596,312 597,312 600,314L602,317L603,387L603,457L607,459C611,460 612,463 612,470C612,478 610,482 604,488L599,493L600,501C604,529 620,551 646,563C657,569 669,572 671,570C673,569 674,499 673,472L672,453L668,450C661,446 659,440 659,430C658,422 660,419 665,417L668,415L668,308C668,208 669,201 670,199C672,195 674,195 686,195C695,195 696,194 696,193C696,191 695,190 691,189C672,181 663,155 670,129C673,119 677,111 687,94C691,87 695,79 697,76C700,69 702,68 704,71C705,72 707,76 709,81C711,85 715,92 717,95C736,126 740,152 730,172C726,179 718,186 712,189C701,193 703,195 717,195L729,195L731,198L734,201L734,308L734,415L737,417C742,419 744,422 744,429C744,438 742,444 735,450L730,454L730,513L730,571L733,571C745,571 765,561 777,550C790,538 797,527 801,511C804,496 804,494 798,488C793,483 792,482 791,477C789,467 790,462 795,459L799,457L799,387L800,317L802,315C804,313 805,312 815,312C828,311 829,310 820,306C802,298 795,277 801,252C804,242 806,238 816,220C820,214 824,206 826,202C827,199 829,196 830,196C831,196 834,201 837,208C840,214 844,220 845,223C867,257 865,294 840,306C837,308 834,310 834,310C835,311 838,312 845,312C856,312 856,313 859,315L861,318L861,388L861,457L865,458C875,463 870,485 858,491C856,492 856,493 856,496C856,507 849,531 842,546C822,585 781,614 737,619L730,620L730,639L730,658L737,658C747,658 766,654 779,650C810,641 836,626 859,604C873,589 882,577 891,558C901,538 906,520 908,500L908,492L904,490C899,486 896,480 895,472C895,464 896,461 901,459L904,457L904,387L904,317L907,315C909,313 910,312 920,312C932,311 933,310 925,307C917,303 912,297 908,289C905,282 905,281 905,270C904,253 909,241 921,220C923,217 927,210 929,206C932,197 934,195 936,197C937,198 938,199 938,201C939,202 943,211 949,220C962,244 964,251 964,269L964,283L961,290C957,299 952,303 944,307C936,310 938,311 950,312C960,312 961,313 963,315L966,317L966,387L966,457L970,459C974,461 975,465 975,472C974,480 972,485 966,489L961,492L961,501C958,534 943,576 923,604C882,662 819,698 744,705L730,707L731,725C731,734 731,743 732,743C733,746 770,741 793,736C903,711 989,628 1008,528C1012,509 1013,493 1011,492C1005,488 1002,483 1000,477C998,468 999,462 1004,459L1008,457L1008,387L1008,317L1011,315C1013,313 1014,312 1024,312C1036,311 1038,310 1029,306C1009,297 1002,270 1014,242C1016,238 1020,229 1024,222C1028,215 1033,207 1034,203C1038,193 1039,194 1046,209C1050,215 1054,222 1055,224C1058,228 1063,239 1066,246C1075,272 1068,297 1049,306C1046,308 1043,310 1043,310C1044,311 1047,312 1054,312C1065,312 1065,313 1068,315L1070,318L1070,388L1070,457L1073,458C1078,460 1079,463 1079,469C1079,478 1077,483 1071,488L1066,493L1065,504C1059,572 1029,636 978,687C918,747 839,783 746,790L732,792L732,809L732,826L738,826C798,824 860,808 911,782C1031,722 1107,618 1116,500L1117,492L1113,490C1108,486 1105,482 1104,475C1102,466 1104,461 1109,459L1112,458L1112,387L1112,317L1115,315C1117,313 1118,312 1128,312C1135,312 1138,311 1139,310C1139,310 1136,308 1133,306C1112,296 1106,270 1119,241C1120,237 1124,230 1127,224C1130,219 1135,210 1137,206C1140,200 1142,196 1143,196C1144,196 1146,199 1147,202C1148,204 1152,212 1157,220C1161,227 1165,235 1166,238C1180,268 1174,296 1153,306C1150,308 1147,310 1147,310C1148,311 1151,312 1158,312C1169,313 1172,313 1173,316C1174,317 1174,344 1174,387L1174,457L1177,459C1182,461 1183,463 1183,471C1182,480 1180,485 1175,489L1170,492L1169,505C1155,647 1055,774 906,836C857,856 803,868 744,872L732,872L732,880L732,888L741,890C759,893 766,897 768,904C769,909 768,911 760,923C756,929 751,937 749,940C728,987 738,1055 773,1096C781,1105 789,1111 801,1117C811,1121 827,1129 841,1136C850,1140 858,1148 862,1154C866,1162 868,1191 864,1202C858,1223 817,1240 754,1248C737,1249 681,1250 665,1249ZM731,1242C787,1239 831,1227 850,1210C857,1204 859,1199 859,1188C859,1183 859,1179 858,1179C858,1179 856,1180 855,1182C849,1188 832,1197 815,1202C762,1219 677,1222 613,1209C585,1203 557,1192 547,1182C544,1180 542,1178 541,1178C540,1178 541,1194 542,1198C548,1218 598,1236 659,1241C686,1243 707,1243 731,1242ZM1124,1232C1120,1230 1115,1223 1115,1220C1115,1210 1128,1207 1136,1215C1146,1224 1136,1237 1124,1232ZM1135,1226C1136,1223 1136,1223 1134,1220C1132,1215 1126,1213 1123,1215C1119,1218 1119,1221 1123,1225C1127,1229 1132,1229 1135,1226ZM1044,1221C1041,1218 1041,1217 1041,1214C1042,1210 1044,1208 1051,1203C1059,1198 1064,1198 1067,1202C1071,1207 1071,1210 1065,1215C1055,1224 1049,1226 1044,1221ZM1059,1215C1065,1210 1066,1206 1063,1204C1059,1201 1046,1211 1046,1215C1046,1221 1051,1221 1059,1215ZM1187,1218C1181,1215 1172,1206 1172,1202C1172,1196 1179,1192 1185,1194C1189,1196 1198,1203 1200,1206C1204,1214 1196,1223 1187,1218ZM1196,1213C1197,1210 1196,1208 1189,1202C1183,1197 1178,1196 1177,1201C1177,1205 1188,1215 1192,1215C1194,1215 1195,1214 1196,1213ZM742,1209C793,1205 832,1193 849,1179C859,1169 860,1161 851,1151C847,1148 836,1140 835,1141C835,1142 835,1144 836,1146C840,1163 819,1176 774,1184C720,1194 639,1191 596,1176C573,1169 562,1158 565,1147C566,1145 566,1143 566,1142C564,1140 548,1152 545,1157C544,1161 544,1167 545,1171C548,1175 556,1182 564,1187C589,1199 625,1207 681,1210C690,1211 729,1210 742,1209ZM983,1200C978,1198 976,1191 980,1187C983,1183 994,1178 1000,1177C1004,1177 1005,1177 1007,1179C1011,1183 1011,1188 1007,1191C1001,1197 988,1202 983,1200ZM1241,1195C1240,1194 1236,1191 1233,1188C1226,1181 1225,1178 1229,1173C1233,1168 1238,1169 1246,1175C1257,1183 1259,1188 1253,1194C1250,1198 1246,1198 1241,1195ZM998,1192C1005,1188 1007,1186 1004,1182C1002,1180 1000,1181 991,1185C984,1189 983,1189 983,1192C983,1193 983,1195 984,1195C985,1197 991,1196 998,1192ZM1251,1190C1252,1187 1251,1184 1243,1178C1238,1174 1234,1173 1232,1175C1230,1178 1231,1181 1238,1186C1245,1193 1249,1194 1251,1190ZM1100,1185C1067,1181 1048,1173 1041,1160C1027,1135 1062,1113 1116,1113C1160,1113 1193,1127 1197,1147C1199,1161 1184,1175 1160,1181C1145,1185 1116,1187 1100,1185ZM726,1183C808,1178 849,1159 823,1137C821,1135 816,1132 812,1130C791,1120 785,1117 784,1115C782,1113 780,1114 776,1117C751,1140 651,1140 626,1117L622,1114L602,1124C586,1132 580,1136 576,1139C569,1146 569,1152 575,1159C591,1176 662,1187 726,1183ZM319,1176C374,1166 418,1140 434,1106L438,1098L438,1082C438,1069 438,1066 435,1049C426,1008 401,910 396,901C394,897 390,893 385,892C380,891 374,892 354,899C332,906 287,921 234,937C209,945 187,952 184,954C175,959 173,967 177,985C180,995 192,1039 198,1063C200,1070 204,1083 207,1092C216,1128 220,1141 224,1147C237,1173 273,1184 319,1176ZM1149,1177C1161,1174 1171,1171 1171,1169C1171,1167 1157,1161 1147,1158C1127,1153 1093,1154 1076,1161C1068,1164 1062,1167 1062,1169C1062,1171 1083,1176 1098,1178C1106,1179 1141,1178 1149,1177ZM205,1175C206,1174 209,1172 211,1171C218,1164 218,1154 212,1132C205,1110 176,1001 170,980C167,968 162,960 155,957C150,955 125,951 116,951C96,951 96,959 111,1017C126,1079 143,1128 153,1146C166,1167 190,1180 205,1175ZM1287,1166C1285,1165 1283,1159 1285,1156C1287,1152 1297,1142 1301,1141C1308,1138 1315,1146 1312,1153C1310,1157 1302,1165 1299,1167C1295,1168 1290,1168 1287,1166ZM1183,1163C1196,1153 1191,1138 1169,1128C1142,1116 1095,1116 1067,1127C1046,1136 1038,1149 1049,1160C1053,1164 1055,1165 1058,1162C1063,1158 1073,1154 1084,1151C1094,1149 1096,1149 1115,1149C1143,1149 1159,1152 1172,1161C1180,1167 1179,1166 1183,1163ZM935,1162C929,1159 922,1152 922,1148C922,1141 929,1137 936,1141C944,1144 949,1150 949,1154C949,1159 948,1161 945,1163C941,1164 939,1164 935,1162ZM1301,1158C1307,1152 1309,1149 1307,1146C1304,1143 1301,1145 1295,1151C1289,1157 1288,1160 1290,1163C1292,1165 1295,1164 1301,1158ZM944,1157C946,1154 945,1152 938,1148C933,1144 930,1143 928,1145C925,1148 928,1153 936,1158C939,1159 943,1159 944,1157ZM990,1149C984,1143 983,1139 987,1135C990,1131 994,1130 999,1133C1013,1140 1013,1154 1000,1154C997,1154 995,1153 990,1149ZM255,1149C245,1145 243,1141 230,1092C227,1082 223,1067 221,1058C212,1023 204,991 204,987C204,979 208,973 215,969C217,968 234,962 254,956C274,950 300,942 313,937C361,922 367,921 374,925C378,927 381,931 383,938C387,949 415,1065 418,1080C421,1094 415,1103 402,1109C394,1112 344,1129 318,1137C273,1151 262,1153 255,1149ZM1004,1149C1006,1147 1005,1143 1001,1140C996,1135 991,1135 990,1139C990,1145 1000,1152 1004,1149ZM289,1140C327,1129 394,1107 403,1103C408,1100 412,1096 413,1091C415,1085 414,1081 393,1000C376,932 377,932 371,929C365,927 368,926 292,950C209,976 213,974 210,982C208,988 208,986 224,1050C228,1062 232,1078 234,1086C248,1138 249,1141 256,1144C262,1147 268,1146 289,1140ZM1230,1141C1223,1138 1220,1135 1220,1131C1220,1127 1223,1124 1227,1123C1230,1122 1242,1125 1246,1129C1248,1131 1249,1132 1249,1135C1249,1143 1241,1145 1230,1141ZM1243,1137C1246,1134 1244,1132 1237,1129C1231,1127 1227,1126 1225,1128C1222,1131 1225,1134 1232,1137C1239,1139 1241,1139 1243,1137ZM730,1126C749,1124 767,1118 773,1113C776,1110 776,1110 770,1103C732,1061 720,987 742,939C745,934 748,928 750,925C752,922 754,919 754,919C753,919 749,920 745,921C730,925 722,925 701,925C680,925 671,925 657,921C653,920 649,919 649,919C649,920 651,923 653,927C666,946 671,967 671,995C671,1037 658,1075 632,1104C627,1110 627,1110 628,1112C633,1118 652,1124 670,1126C674,1127 680,1127 681,1127C688,1128 719,1128 730,1126ZM1267,1120C1265,1119 1257,1111 1254,1106C1251,1102 1252,1099 1255,1096C1260,1091 1264,1092 1271,1099C1278,1105 1280,1109 1280,1113C1280,1118 1273,1122 1267,1120ZM950,1117C946,1113 947,1109 952,1103C958,1098 966,1094 970,1094C978,1094 981,1103 974,1110C965,1119 955,1121 950,1117ZM1275,1114C1277,1112 1275,1110 1270,1103C1265,1098 1261,1096 1258,1098C1256,1100 1257,1104 1263,1110C1269,1116 1272,1118 1275,1114ZM962,1113C968,1109 974,1104 974,1102C974,1099 970,1098 967,1099C962,1101 953,1108 953,1110C953,1115 957,1116 962,1113ZM307,1098C296,1091 279,1080 268,1073C257,1066 247,1060 246,1059C245,1057 245,1057 251,1045C258,1030 285,981 289,974C293,967 293,967 305,974C346,999 379,1021 379,1023C379,1024 371,1039 345,1086C335,1104 331,1111 329,1111C328,1111 320,1106 307,1098ZM343,1078C369,1031 372,1025 372,1025C372,1023 298,976 296,976C295,976 291,982 287,990C283,997 278,1007 275,1011C267,1027 253,1054 253,1055C253,1056 262,1062 274,1070C286,1077 303,1088 311,1094C324,1102 328,1104 329,1103C329,1102 336,1091 343,1078ZM1024,1103C1015,1100 1006,1093 1006,1089C1006,1085 1011,1080 1015,1080C1020,1080 1033,1087 1035,1091C1040,1098 1032,1106 1024,1103ZM1032,1096C1032,1093 1030,1091 1022,1087C1014,1083 1011,1084 1011,1089C1011,1091 1013,1092 1018,1095C1026,1100 1031,1100 1032,1096ZM1190,1097C1185,1094 1184,1087 1189,1083C1193,1079 1204,1074 1208,1074C1216,1074 1219,1082 1215,1087C1212,1090 1198,1098 1195,1098C1193,1098 1192,1097 1190,1097ZM1204,1089C1210,1086 1212,1085 1212,1083C1212,1077 1207,1077 1197,1082C1191,1085 1189,1089 1191,1091C1193,1094 1197,1093 1204,1089ZM1065,1088C1059,1082 1062,1077 1072,1072C1081,1067 1085,1067 1089,1071C1095,1076 1092,1082 1082,1087C1074,1091 1068,1091 1065,1088ZM1139,1088C1138,1088 1134,1084 1131,1081C1124,1074 1123,1071 1128,1067C1131,1064 1132,1064 1135,1064C1142,1065 1154,1076 1154,1082C1154,1088 1145,1092 1139,1088ZM1080,1083C1086,1080 1086,1079 1086,1077C1086,1072 1084,1071 1079,1073C1069,1077 1065,1081 1068,1085C1070,1087 1073,1086 1080,1083ZM1149,1083C1150,1080 1149,1078 1142,1073C1136,1068 1134,1068 1132,1069C1128,1071 1130,1074 1136,1080C1142,1086 1147,1087 1149,1083ZM298,1064C287,1056 277,1050 277,1049C277,1047 298,1006 301,1003C302,1002 302,1002 305,1003C313,1008 345,1029 346,1030C348,1032 347,1033 333,1060C326,1072 323,1077 322,1077C320,1077 311,1071 298,1064ZM331,1050C337,1040 340,1033 339,1032C339,1032 331,1026 321,1020L304,1009L302,1013C297,1021 284,1046 284,1047C285,1047 290,1051 296,1055C302,1058 309,1063 313,1066C318,1069 320,1070 321,1069C321,1068 326,1060 331,1050ZM1259,1060C1296,1045 1326,1016 1337,985C1340,974 1343,955 1342,955C1342,955 1339,957 1337,959C1331,965 1325,966 1318,965C1315,964 1310,964 1308,964C1302,964 1298,967 1296,976C1290,997 1287,1002 1279,1007C1270,1011 1261,1011 1250,1005C1235,998 1226,1000 1217,1012C1207,1026 1199,1032 1189,1035C1177,1039 1164,1037 1153,1029C1150,1027 1145,1024 1142,1022C1133,1015 1121,1013 1111,1017C1109,1017 1102,1021 1097,1024C1083,1032 1077,1034 1067,1034C1051,1035 1043,1029 1032,1013C1023,1000 1019,998 1011,998C1005,998 1003,998 995,1002C982,1008 976,1010 968,1008C958,1004 952,996 948,980C944,961 942,959 927,962C920,964 914,962 909,957C907,956 906,954 905,954C904,954 906,972 908,979C916,1010 940,1035 977,1054L989,1059L1004,1055C1029,1048 1050,1045 1079,1043C1098,1042 1153,1042 1168,1044C1194,1047 1223,1053 1241,1058C1247,1060 1252,1062 1252,1062C1252,1062 1255,1061 1259,1060ZM1189,1029C1196,1026 1202,1021 1209,1012C1223,993 1232,990 1252,999C1270,1007 1281,1003 1286,986C1287,982 1289,977 1290,973C1292,966 1296,960 1301,958C1304,957 1310,957 1320,959C1333,961 1343,946 1340,927C1333,875 1277,833 1197,819C1145,809 1082,811 1036,823C1001,833 975,845 953,861C920,885 900,925 910,947C913,955 918,958 928,955C936,954 938,954 943,956C948,959 952,964 954,976C957,992 961,998 969,1001C975,1003 980,1002 992,996C1013,987 1025,990 1037,1009C1046,1023 1054,1028 1067,1028C1075,1028 1081,1026 1092,1019C1116,1005 1131,1005 1150,1019C1159,1025 1161,1027 1166,1028C1172,1030 1184,1030 1189,1029ZM1151,994C1150,993 1146,990 1143,987C1138,982 1137,981 1137,978C1137,972 1144,968 1149,970C1153,971 1163,979 1164,982C1166,986 1164,991 1161,993C1157,995 1156,995 1151,994ZM1073,992C1068,990 1059,975 1060,971C1061,965 1067,962 1072,964C1076,966 1086,980 1086,984C1086,990 1079,994 1073,992ZM1160,988C1161,985 1159,982 1154,978C1148,974 1144,973 1142,975C1140,978 1142,980 1148,985C1153,990 1158,991 1160,988ZM1081,984C1081,980 1073,969 1069,968C1064,968 1063,972 1066,977C1071,986 1074,988 1077,988C1080,988 1081,987 1081,984ZM1214,974C1203,968 1199,964 1200,958C1202,951 1210,950 1220,956C1231,962 1234,968 1228,973C1224,977 1220,977 1214,974ZM1224,971C1228,968 1226,965 1219,960C1211,956 1208,955 1206,957C1203,960 1205,963 1211,967C1220,972 1222,973 1224,971ZM999,965C994,960 996,955 1004,948C1013,940 1018,939 1023,944C1029,949 1026,955 1014,963C1007,968 1002,968 999,965ZM173,959C174,957 175,955 175,954C175,954 164,955 163,956C163,956 169,964 170,964C170,964 172,962 173,959ZM1009,961C1020,954 1024,949 1019,946C1015,944 1001,954 1001,958C1001,963 1004,964 1009,961ZM1108,950C1072,946 1049,933 1049,916C1049,901 1066,888 1094,882C1107,879 1137,879 1150,881C1190,888 1210,905 1201,925C1192,943 1150,954 1108,950ZM178,948C182,947 193,944 202,941C210,938 227,933 240,929C294,912 309,907 339,897C370,887 372,887 380,887L389,887L385,882C375,872 356,867 332,867C318,867 295,870 293,871C293,872 293,873 294,875C296,878 295,886 293,890C281,913 205,930 186,914C182,911 180,907 180,904C180,902 180,901 179,901C178,900 162,906 146,913C124,923 109,933 104,943C101,948 101,948 107,946C112,944 120,945 136,947C154,950 167,951 178,948ZM1158,941C1169,939 1177,936 1178,934C1178,933 1163,925 1154,923C1143,921 1112,920 1100,922C1087,925 1072,931 1074,934C1075,936 1088,940 1102,943C1114,945 1146,944 1158,941ZM1298,932C1293,928 1287,917 1287,914C1287,911 1292,906 1296,906C1302,906 1313,920 1313,927C1313,935 1304,937 1298,932ZM952,932C948,930 939,921 938,917C936,911 942,905 949,906C952,907 965,919 965,923C966,925 964,930 961,932C959,933 954,933 952,932ZM1240,928C1230,920 1228,914 1233,909C1238,903 1245,906 1253,916C1258,921 1258,927 1254,930C1250,933 1246,933 1240,928ZM1190,928C1206,915 1193,897 1162,890C1113,877 1053,892 1055,916C1056,921 1059,927 1063,929C1066,930 1066,930 1069,928C1076,922 1086,918 1101,915C1112,914 1143,914 1152,916C1163,918 1173,922 1179,926C1183,929 1186,931 1186,931C1186,931 1188,930 1190,928ZM1307,930C1309,928 1308,924 1304,918C1299,911 1297,909 1294,911C1291,913 1292,916 1296,923C1301,931 1304,933 1307,930ZM959,928C963,926 961,923 955,917C950,912 948,911 946,911C940,912 941,917 950,925C956,929 956,930 959,928ZM1251,926C1254,924 1253,922 1248,916C1242,910 1240,909 1237,911C1233,913 1235,916 1241,922C1247,928 1248,929 1251,926ZM728,918C744,916 758,911 760,907C763,903 755,899 740,897C732,896 732,896 729,898C721,906 679,905 673,898C671,895 665,896 654,899C644,901 642,903 642,906C643,916 692,923 728,918ZM1010,913C995,907 1001,891 1017,896C1026,900 1030,907 1025,913C1022,915 1016,916 1010,913ZM243,910C272,903 289,892 289,881C289,874 281,868 271,868L266,868L266,872C266,877 264,880 256,884C245,890 233,893 220,893C207,894 204,892 201,886C200,882 200,882 192,889C183,898 184,908 196,913C203,915 229,914 243,910ZM1022,910C1025,906 1020,901 1012,900C1004,899 1003,905 1010,908C1017,911 1020,912 1022,910ZM711,897C716,896 721,896 722,895C724,894 724,892 724,765C724,694 723,596 723,546L722,456L719,456C717,456 709,456 702,456C694,456 686,456 684,456L680,456L679,675C679,865 679,894 680,895C682,896 691,898 698,898C700,898 706,898 711,897ZM235,886C246,883 255,879 258,876C260,874 260,873 257,864C254,855 249,831 242,791C237,767 234,760 224,755C219,752 218,752 210,752C195,753 185,759 179,770C175,778 176,787 184,810C199,853 204,869 206,877C207,882 209,886 210,887C212,889 225,888 235,886ZM1247,885C1242,879 1245,873 1255,868C1267,863 1274,863 1276,870C1278,874 1275,878 1266,883C1257,888 1251,888 1247,885ZM970,884C965,878 968,872 981,865C988,861 992,861 996,865C1001,870 999,874 992,879C980,887 975,888 970,884ZM1263,880C1270,876 1272,874 1272,871C1271,867 1264,868 1255,873C1250,877 1249,879 1251,882C1253,884 1255,883 1263,880ZM984,879C994,873 996,869 992,867C989,865 973,874 973,877C973,883 976,883 984,879ZM672,850L672,834L662,834C658,833 648,833 641,832C479,817 334,707 291,566C285,546 278,510 278,495C278,495 269,494 259,494L239,494L239,498C239,511 246,547 253,570C291,694 400,798 540,843C577,855 636,865 664,865L672,864L672,850ZM752,864C801,860 845,851 887,835C1036,780 1142,657 1160,518C1161,512 1162,504 1162,501L1162,495L1143,495C1133,495 1124,495 1124,495C1124,495 1123,502 1122,510C1117,567 1096,619 1059,670C1030,709 988,746 945,772C885,808 823,827 748,833C740,834 733,834 732,835C731,835 730,863 732,864C733,865 736,865 752,864ZM1035,860C1024,854 1021,847 1028,842C1032,840 1036,840 1045,845C1056,850 1058,855 1053,861C1050,865 1045,865 1035,860ZM1193,861C1191,859 1190,857 1190,856C1190,852 1197,845 1206,841C1213,837 1220,840 1220,847C1220,852 1219,853 1211,859C1202,865 1197,866 1193,861ZM1050,859C1053,856 1048,850 1039,846C1034,845 1031,845 1030,847C1028,850 1030,852 1038,856C1045,860 1048,861 1050,859ZM1204,858C1215,851 1218,846 1214,844C1209,842 1195,851 1195,856C1195,860 1199,861 1204,858ZM1087,852C1079,844 1077,838 1082,834C1087,829 1093,831 1100,840C1105,846 1105,850 1102,854C1098,859 1093,858 1087,852ZM1099,852C1101,850 1100,847 1095,841C1089,836 1086,834 1084,838C1083,840 1083,841 1086,844C1091,852 1096,855 1099,852ZM1142,846C1132,841 1129,835 1133,830C1137,826 1141,825 1148,829C1160,834 1163,841 1158,847C1154,850 1150,850 1142,846ZM1155,843C1157,840 1156,839 1150,835C1143,829 1136,829 1136,834C1136,837 1139,840 1146,843C1152,845 1152,845 1155,843ZM672,769C672,759 672,753 671,752C670,752 668,751 664,751C652,751 625,747 606,742C497,715 410,633 389,535C386,522 383,505 383,499L383,494L363,494L344,494L344,504C347,547 368,602 396,640C453,719 547,772 645,782C651,783 657,783 658,783C660,784 664,784 666,784L672,784L672,769ZM758,782C876,770 979,703 1028,606C1044,575 1055,539 1057,509C1058,505 1058,500 1059,498L1059,494L1040,494C1018,494 1019,494 1019,502C1019,505 1018,512 1017,519C1003,609 939,687 848,726C816,739 765,751 738,751C736,751 733,752 732,752C731,754 730,782 732,783C733,784 740,784 758,782ZM672,683L672,667L656,664C636,661 623,657 608,651C540,625 494,568 488,501L487,494L468,495C451,495 448,495 448,496C448,499 451,520 454,530C476,618 555,684 655,697C660,698 666,699 668,699L672,698L672,683ZM760,696C845,682 911,631 940,557C947,540 954,510 954,497L954,494L935,495L916,495L914,505C912,526 907,543 897,562C869,619 814,656 744,665L730,667L730,681C730,690 730,697 730,698C731,700 742,699 760,696ZM673,596C673,578 673,579 665,577C649,575 631,565 618,552C604,538 598,526 594,506L592,494L573,495C560,495 553,495 553,496C553,496 554,501 554,506C562,550 592,586 636,603C647,608 665,612 670,612L672,612L673,596ZM752,609C796,598 830,566 843,526C845,518 849,501 849,497L849,494L830,495L810,495L810,498C807,536 779,569 742,577C729,579 730,578 730,595C730,604 730,611 731,611C732,613 742,611 752,609ZM273,488C286,485 290,482 292,473C293,465 291,465 281,467C271,469 246,469 235,467C230,466 226,465 226,466C224,466 225,475 227,479C227,480 230,483 232,484C239,488 259,490 273,488ZM378,488C390,485 395,481 396,472C396,469 396,466 395,466C395,465 390,466 386,467C375,469 350,469 340,467C330,465 329,465 330,472C331,481 335,485 345,487C348,487 351,488 352,488C357,489 370,489 378,488ZM487,486C494,484 497,482 499,479C500,476 501,466 499,466C499,465 494,466 489,467C478,469 456,469 445,467C440,466 435,465 435,466C433,466 434,475 435,479C437,483 441,485 449,487C452,487 455,488 456,488C461,489 482,488 487,486ZM592,486C599,484 602,482 604,479C605,476 606,466 604,466C604,465 599,466 595,467C584,469 559,469 549,467C544,466 540,465 540,466C538,467 539,478 542,481C544,484 550,487 558,488C566,489 585,488 592,486ZM844,488C857,485 862,481 863,472C863,469 863,466 862,466C862,465 858,466 853,467C843,468 819,469 810,467C799,465 798,465 797,468C796,473 798,479 801,482C807,488 827,491 844,488ZM955,487C964,484 967,480 968,472C968,469 968,466 967,466C967,465 963,466 958,467C947,469 923,469 912,467C907,466 903,465 903,466C901,467 902,477 904,480C910,488 937,492 955,487ZM1053,488C1067,485 1071,481 1072,472C1072,469 1072,466 1071,466C1071,465 1066,466 1062,467C1052,468 1028,469 1018,467C1007,465 1007,465 1006,469C1006,474 1008,481 1011,483C1019,488 1039,490 1053,488ZM1158,488C1171,485 1176,481 1177,472C1177,465 1176,465 1166,467C1157,469 1132,469 1122,467C1112,465 1111,465 1110,468C1109,473 1111,479 1114,482C1120,488 1141,491 1158,488ZM280,460C282,459 282,452 282,389L282,320L258,320L234,320L234,389C234,438 234,459 235,460C237,461 241,462 261,462C274,461 279,461 280,460ZM385,460L387,459L387,390C387,338 387,321 386,320C385,319 378,319 362,319C347,319 340,319 339,320C337,322 337,458 339,460C341,461 346,462 365,462C377,461 383,461 385,460ZM489,460C491,459 491,451 491,389L490,320L467,320L444,320L443,389C443,438 443,459 444,460C446,461 450,462 470,462C483,461 488,461 489,460ZM594,460L596,459L596,389L596,320L572,320L548,320L548,390L548,460L552,461C559,462 591,462 594,460ZM852,460C854,459 854,452 854,389L854,320L830,320L806,320L806,389C806,438 806,459 807,460C809,461 813,462 833,462C846,461 851,461 852,460ZM957,460L959,459L959,389L958,320L935,320L912,320L911,389C911,438 911,459 912,460C914,461 918,462 937,462C949,461 955,461 957,460ZM1061,460C1063,459 1063,451 1063,389L1062,320L1039,320L1016,320L1015,389C1015,438 1015,459 1016,460C1018,461 1022,462 1042,462C1055,461 1060,461 1061,460ZM1165,460C1167,459 1167,452 1167,389L1166,320L1144,319C1128,319 1121,319 1120,320C1118,322 1118,458 1120,460C1124,462 1162,463 1165,460ZM715,450C730,448 736,443 738,431C739,424 737,422 729,425C720,427 684,427 674,425C666,423 665,423 665,430C665,436 668,442 672,445C679,450 698,452 715,450ZM723,419L726,418L726,310L726,202L702,202C685,202 677,202 676,203C674,205 674,418 676,419C682,421 714,421 723,419ZM938,302C944,294 946,282 941,271C939,268 937,264 936,263C934,262 934,262 931,267C924,280 924,294 932,302C935,305 935,305 938,302ZM1043,300C1049,293 1050,281 1044,269C1042,266 1040,262 1039,262C1038,262 1036,266 1034,270C1028,282 1028,294 1035,301C1039,305 1039,305 1043,300ZM263,299C268,291 268,282 263,271C259,260 257,260 253,270C247,281 247,293 253,300C257,304 260,304 263,299ZM366,301C373,293 373,279 365,266C363,262 363,262 361,263C358,266 354,277 353,283C353,290 354,295 358,300C361,304 363,304 366,301ZM472,299C477,291 477,281 471,269C469,265 467,262 467,262C465,263 460,271 459,278C456,285 457,291 461,298C465,304 468,305 472,299ZM576,299C581,293 582,286 580,278C578,271 574,263 572,263C568,263 562,278 562,285C562,290 565,298 568,301C570,304 574,303 576,299ZM834,300C837,296 839,288 839,281C838,276 832,262 830,262C828,263 822,274 821,280C820,287 821,294 825,299C828,304 831,304 834,300ZM1147,301C1154,293 1154,279 1146,266C1144,262 1144,262 1142,263C1136,269 1132,285 1135,293C1139,303 1143,305 1147,301ZM245,294C244,292 244,287 244,282C245,273 248,264 255,257L258,254L260,256C269,267 274,283 271,293C269,300 269,300 274,296C281,287 284,276 282,263C280,251 278,244 269,228C265,221 261,213 260,212C258,208 257,208 254,216C252,219 248,227 245,232C236,246 234,256 234,270C234,283 236,289 242,296C246,300 247,299 245,294ZM351,299C351,299 350,297 350,294C347,289 348,281 350,274C352,267 360,254 362,254C364,254 369,262 372,269C376,277 377,287 375,294C373,300 374,300 378,296C385,288 387,280 387,266C386,252 381,239 363,210C362,209 348,232 344,242C335,262 336,283 346,295C348,298 351,300 351,299ZM454,294C453,292 453,287 453,282C454,273 457,265 463,257L467,254L469,256C471,258 474,263 476,268C481,277 482,285 480,293C479,296 478,299 479,299C479,300 484,295 487,289C495,273 492,253 478,229C475,223 471,215 470,213C468,211 467,209 467,209C466,209 465,211 464,214C462,216 459,223 456,228C445,246 441,258 442,272C443,282 446,290 451,296C455,300 455,299 454,294ZM560,297C557,291 557,283 558,277C561,268 569,254 572,254C573,254 581,266 583,270C586,278 586,286 585,292C583,299 583,300 587,297C597,287 599,265 591,245C587,235 572,208 571,210C550,245 548,251 548,270C548,283 549,288 555,296C558,299 561,300 560,297ZM846,295C856,283 857,262 849,243C845,234 831,209 830,209C829,209 829,210 828,212C827,213 824,220 820,227C816,234 811,242 810,246C803,264 804,283 812,294C815,298 819,299 818,296C815,291 815,285 816,279C818,269 828,253 831,254C833,256 839,267 842,273C844,280 845,286 843,294C841,300 842,300 846,295ZM922,294C920,286 921,276 926,267C928,262 931,257 933,256L935,254L938,256C942,262 947,272 948,279C949,285 949,292 946,297C945,301 948,299 952,294C957,287 959,279 959,269C959,255 955,243 943,222C939,216 936,211 936,210C936,208 934,209 932,213C931,216 927,223 923,230C914,245 911,255 910,267C910,280 912,289 920,296C923,300 923,299 922,294ZM1027,297C1025,290 1024,285 1025,279C1026,273 1032,262 1036,257L1039,254L1042,257C1050,267 1055,282 1052,292C1050,300 1050,300 1054,297C1067,284 1067,258 1053,234C1051,229 1046,222 1044,217C1042,213 1039,209 1039,209C1038,209 1037,210 1037,212C1036,214 1033,219 1031,223C1022,237 1018,246 1016,256C1012,272 1015,287 1023,295C1027,300 1027,300 1027,297ZM1132,299C1132,299 1131,297 1131,294C1128,289 1129,280 1131,273C1133,267 1142,254 1143,254C1145,254 1150,262 1153,269C1157,277 1158,287 1156,294C1154,300 1154,300 1159,295C1165,288 1167,281 1167,270C1168,254 1164,243 1149,219C1143,208 1143,208 1142,210C1142,210 1138,217 1134,225C1118,252 1115,269 1121,285C1123,290 1129,299 1131,299C1132,299 1132,299 1132,299ZM706,182C713,172 713,157 705,144L702,139L700,141C699,142 696,146 695,150C690,161 690,171 695,180C699,186 702,187 706,182ZM689,181C689,181 688,178 687,176C684,167 686,156 691,146C693,141 696,136 698,134L701,130L704,134C706,136 710,142 712,146C715,153 715,155 716,162C716,169 716,173 715,176C713,182 713,182 718,178C733,163 732,135 715,106C712,100 707,92 705,88C703,85 701,82 701,82C701,82 700,84 699,86C698,88 694,94 690,100C682,116 678,123 676,133C672,150 675,167 684,177C687,180 689,182 689,181Z"/></svg>